<?xml version="1.0" encoding="utf-8"?>
<!-- Generator: Adobe Illustrator 22.0.1, SVG Export Plug-In . SVG Version: 6.00 Build 0)  -->
<svg version="1.1" xmlns="http://www.w3.org/2000/svg" xmlns:xlink="http://www.w3.org/1999/xlink" x="0px" y="0px"
	 viewBox="0 0 2272 1872" style="enable-background:new 0 0 2272 1872;" xml:space="preserve">
<style type="text/css">
	.st0{fill:#B9F4FF;}
	.st1{fill:#FFFFFF;}
	.st2{fill:#A4C2DB;}
	.st3{fill:#7193AA;}
	.st4{fill:#FFD484;}
	.st5{fill:#D8AD68;}
	.st6{fill:#4DA8BB;}
	.st7{fill:#3D909B;}
	.st8{fill:#64D3E2;}
	.st9{fill:#33767F;}
	.st10{fill:#B3E0FF;}
	.st11{fill:#3F3F3F;}
	.st12{fill:#F19CA2;}
	.st13{fill:#B26671;}
	.st14{fill:#8E4F55;}
	.st15{fill:#CE8A91;}
	.st16{fill:#8FD0D8;}
	.st17{fill:#6D6D6D;}
	.st18{fill:#F9A36F;}
	.st19{fill:#474747;}
	.st20{fill:#606060;}
	.st21{fill:#B7B7B7;}
	.st22{fill:#7C7C7C;}
	.st23{fill:#596F9B;}
	.st24{fill:#E74C3C;}
	.st25{fill:#545454;}
	.st26{fill:#C9765D;}
	.st27{fill:#EA856E;}
	.st28{fill:#686868;}
	.st29{fill:#AF6452;}
	.st30{fill:#B53933;}
	.st31{fill:#FF928D;}
	.st32{fill:#FF6B64;}
</style>
<g id="Background">
	<g>
		<g>
			<g>
				<g>
					<g>
						<g>
							<g>
								<path class="st0" d="M2272.4,1872.5H-0.5V-0.5h2272.9"/>
							</g>
						</g>
					</g>
				</g>
			</g>
		</g>
		<path class="st1" d="M1837.4,395.3H421.9C224.4,395.3,64.2,555.4,64.2,753v63.7c0,197.6,160.2,357.7,357.7,357.7h1415.5
			c197.6,0,357.7-160.2,357.7-357.7V753C2195.2,555.4,2035,395.3,1837.4,395.3z"/>
		<path class="st0" d="M1008.5,1091.1c-10.5-3.3-22.8-7.3-26.5-17.7c-2.9-8.1,0.7-16.9,3.3-25.1c12-36.9,4.5-79.6-19.4-110.1
			c-23.9-30.6-63.5-48.1-102.2-45.4c-6.3,0.4-13.3,1.2-18.2-2.8c-5.6-4.6-5.4-12.9-5.6-20.2c-0.7-35-21.4-70.2-53.9-83.3
			c-32.5-13.1-74.8,0.3-90,31.9c-22.4-30.9-55.9-56.6-93.9-58.1c-38.1-1.6-78.1,28.5-77.3,66.6c-19.1-22.1-51.7-31.2-79.5-22.2
			c-27.7,9-48.9,35.5-51.5,64.5c-36-34.3-104.1-23.1-127.2,21c-0.9-19-2-39-12-55.2c-10-16.2-32.1-26.7-48.7-17.4
			c1.9-23,3.7-47.1-5.9-68.1s-34.8-36.7-56-27.6c-3.8-27.3-9.8-55.7-27.8-76.6c-7.5-8.7-17.8-15.4-28.8-19
			C72.4,665.7,64.2,708.4,64.2,753v63.7c0,197.6,160.2,357.7,357.7,357.7h704.8C1099,1134.5,1055.3,1105.8,1008.5,1091.1z"/>
		<path class="st2" d="M875.4,1049.8c-26.3-7.3-59,5.2-66.9,31.3c-24.9-32.9-60.4-60.2-101.4-64.3c-41-4.1-86.1,21.1-94.8,61.4
			c-21.3-37.4-64-61.6-107.1-60.7c-43.1,0.9-84.7,27-104.4,65.3c-17.2-49.5-89.6-68.6-128.9-34c-8.4-33-17.4-67.3-39.1-93.6
			c-21.7-26.3-60-42.2-90.8-27.7c0.9-75.1-4.7-150.3-16.6-224.4c-3.7-23.2-8.4-47.2-19.8-67.5c-5.5-4-11.7-7.2-18.2-9.4
			C72.4,665.7,64.2,708.4,64.2,753v63.7c0,197.6,160.2,357.7,357.7,357.7H966c-11-23.6-18.8-48.6-31.4-71.4
			C921.5,1079.1,901.7,1057.1,875.4,1049.8z"/>
		<path class="st0" d="M2195.2,816.7V753c0-86-30.4-165-81-226.7c-14,3-27.5,8.5-39.3,16.4c-37.9,25.4-59.1,70.9-62.7,116.4
			c-12-13.9-35.9-15.2-49.4-2.7c-13.5,12.5-13.9,36.5-0.9,49.5c-27.6,7.7-35.5,51.1-12.4,68c-26.1-3.9-43.4,37.8-22.1,53.4
			c-15.9-3.7-30.3,16.3-24.7,30.6c0.8,1.4,1.7,2.9,2.5,4.3c-1.1-1.4-1.9-2.8-2.5-4.3c-17.4-30-40.8-59.8-74.4-67.1
			c-35.2-7.7-78.1,26.5-64.6,60c-21.6-14.5-52.2-13.8-73.2,1.5s-30.9,44.3-23.6,69.3c-23.8-15.7-57.9,6.6-64.1,34.4
			c-6.3,27.8,6.2,56.2,19.4,81.4c-27.6,1-53.6,21-61.6,47.5c-8,26.5,2.4,57.5,24.8,73.7c-7.5,7-16.7,11.6-26.3,15.6h278.4
			C2035,1174.4,2195.2,1014.3,2195.2,816.7z"/>
		<path class="st2" d="M2096.1,902.4c-26.6-18.8-70.4,0.4-74.5,32.7c-15.9-19-52.8-10.5-58.7,13.6c-21.3-5.6-45.2-0.7-62.6,12.9
			c14.6,19.8,29.2,39.6,43.8,59.4c-21.7-18.3-61.7,2.5-59.2,30.8c-19.1-16.8-48.6-20.6-71.3-9.2s-37.3,37.4-35.1,62.8
			c-61.7-38.5-138-51.1-209.4-37.9c-3.7,5.4-6.6,11.3-8.5,17.6c-8,26.5,2.4,57.5,24.8,73.7c-7.5,7-16.7,11.6-26.3,15.6h278.4
			c191.3,0,347.5-150.1,357.2-338.9C2152.8,840.1,2111,863.3,2096.1,902.4z"/>
	</g>
	<g id="Layer_2">
	</g>
	<g>
		<path class="st3" d="M1956.4,1671.3l3.4,6.8c-159.8-24.5-470.1-41.2-826.6-41.2c-379,0-705.8,18.8-855,45.9
			c1.2-5.9,1.6-9.9,0.2-10.1c-5.3-0.8-86.7-9.3-86.7-9.3v52.6c0,43.7,421.6,79.1,941.6,79.1s941.6-35.4,941.6-79.1v-52.6
			L1956.4,1671.3z"/>
		<ellipse class="st2" cx="1133.2" cy="1663.4" rx="941.6" ry="79.1"/>
		<polygon class="st3" points="1622.3,1663.4 1896.6,1663.4 1861.3,1636.9 1597.9,1622.8 		"/>
		<g>
			<path class="st4" d="M1718.5,1284.5c8.3-6.5,16.5-14.7,27-15.4c11.9-0.8,23,8.2,34.8,6.7c4.3-0.6,9.7-2.1,12.1,1.5
				c1.2,1.7,1.1,3.9,0.9,5.9c-0.4,5.3-0.8,10.6-1.1,15.9c10,0.4,20-0.1,29.9-1.5c9.6,2.7,17,12,17.4,21.9c0.3,7.3-2.7,14.2-4.8,21.2
				c-4.6,15.7-5.8,34.7-19.4,44c-8.9,6.1-20.6,5.8-31.2,4.5c-22.6-2.8-44.6-9.5-65-19.6c-5.3-2.7-10.8-5.8-13.7-10.9
				c-3.9-6.8-2.5-15.4-4.8-22.9c-2.3-7.7-8.3-13.7-12.2-20.7C1674.4,1289.1,1705.3,1295,1718.5,1284.5z"/>
			<path class="st5" d="M1755.6,1276.5c1.1,3.6,0.1,7.5,0.2,11.3s1.9,8.2,5.7,8.8c2.8,0.4,6.4-1.4,8.3,0.7c2.9,3.4-4.1,9.7-0.6,12.5
				c0.7,0.6,1.7,0.7,2.6,0.9c4.2,0.6,9.4,0.7,11.6-3c0.8-1.3,1-2.9,1.1-4.5c0.4-3.7,0.8-7.3,1.2-11c0.1-1.3,0.3-2.7,1.1-3.8
				c1.4-1.9,4-2.2,6.4-2.3c0.1-1,0.1-2,0.2-3c0.1-2,0.2-4.3-0.9-5.9c-2.5-3.6-7.9-2-12.1-1.5c-10.8,1.4-21-6.1-31.8-6.7
				C1751.8,1270.6,1754.6,1273.2,1755.6,1276.5z"/>
			<path class="st5" d="M1822.3,1297.5c-6.3,5.9-9.9,14.3-6.8,22.1c2,5.2,6.5,8.9,10.1,13.2c3.6,4.2,6.6,9.9,4.8,15.2
				c-1,2.9-3.2,5.1-5.8,6.8c-6.8,4.6-15.8,5.5-23.4,2.5s-13.5-10-15.2-18c-1-4.4-0.7-8.9-1.6-13.3s-3.2-8.9-7.4-10.5
				c-2.6-1-5.6-0.7-8.4-0.2c-6.7,1.1-13.4,3.2-20.2,3.3s-14.2-1.9-18.4-7.3c3.7-2.6,7.5-5.4,9.6-9.4c2.2-4,2.1-9.5-1.3-12.5
				c-3.3-2.9-8.3-2.3-12.7-1.5c-3.4,0.6-9.1,0.8-15.6,0.8c-14.4,5.1-33.4,4.9-21.8,26.1c3.9,7.1,9.9,13,12.2,20.7
				c2.3,7.5,0.9,16.1,4.8,22.9c3,5.2,8.4,8.3,13.7,10.9c20.3,10.1,42.4,16.8,65,19.6c10.7,1.3,22.4,1.6,31.2-4.5
				c13.6-9.3,14.7-28.2,19.4-44c2.1-7,5.1-13.9,4.8-21.2C1839.2,1309.5,1831.9,1300.3,1822.3,1297.5z"/>
			<path class="st6" d="M1861.3,1636.9h-216.9v-322.5h152.3c35.7,0,64.6,28.9,64.6,64.6V1636.9z"/>
			<polygon class="st7" points="1644.4,1636.9 1773,1636.9 1644.4,1365.1 			"/>
			<path class="st8" d="M1861.3,1379.1c0-4.8-0.5-9.5-1.5-14h-21.3v271.9h22.9V1379.1z"/>
			<g>
				<rect x="1622.7" y="1401.7" class="st9" width="237.1" height="4.7"/>
				<rect x="1838.4" y="1401.7" class="st6" width="21.3" height="4.7"/>
			</g>
			<g>
				<rect x="1622.7" y="1584.3" class="st9" width="237.1" height="4.7"/>
				<rect x="1838.4" y="1584.3" class="st6" width="21.3" height="4.7"/>
			</g>
			<path class="st9" d="M1796.7,1314.5h-152.3v21.5l215.4,29C1853.3,1336.1,1827.5,1314.5,1796.7,1314.5z"/>
			<path class="st6" d="M1851.2,1099.3c-14.2-13.3-36.9-11.2-48.4,4.6l-175.5,253.4l31.8,7.8L1851.2,1099.3L1851.2,1099.3z"/>
			<path class="st8" d="M1646.9,1362.1l12.2,3l192.1-265.8c-1.7-1.6-3.6-3-5.6-4.2L1646.9,1362.1z"/>
			<circle class="st9" cx="1822.3" cy="1380.8" r="5.7"/>
		</g>
		<path class="st10" d="M1133.2,1731.6c-498.3,0-906.2-32.5-939.4-73.6c-1.4,1.8-2.2,3.6-2.2,5.4c0,43.7,421.6,79.1,941.6,79.1
			s941.6-35.4,941.6-79.1c0-1.8-0.8-3.6-2.2-5.4C2039.4,1699.1,1631.5,1731.6,1133.2,1731.6z"/>
		<path class="st3" d="M532.4,1681.7l12-33.8l90.5-9.5l-41.6,65.8h1110.3l-67.3-94.6l-992.6,7.6l-96.3,6.4l9.5-22.8
			c-29,1.9-56.6,3.9-82.7,6.1l-29.2,65.1L532.4,1681.7z"/>
		<g>
			<g>
				<rect x="486.9" y="1082.8" class="st11" width="161.2" height="32.3"/>
				<rect x="478.2" y="1269.8" class="st11" width="161.2" height="32.3"/>
			</g>
			<g>
				<polygon class="st12" points="528.2,901.3 634.2,1636.5 1649.1,1637.5 1721.1,877.3 				"/>
				<path class="st13" d="M1365.3,987.1l-32.3,395.1c0,0,233.6-16.7,342.5-23l35.2-371.5C1614.2,988.1,1365.3,987.1,1365.3,987.1z"
					/>
				<polygon class="st13" points="938.3,1009.2 545.1,1019.3 597.4,1381.8 979,1371.7 				"/>
				<path class="st13" d="M528.2,902.1l13.5,93.3c204.2-6.3,852.3-26.5,1172-39.1l7.4-78.3L528.2,902.1z"/>
				<polygon class="st14" points="601.3,1406.4 634.9,1638.4 1649.8,1638.4 1669.4,1429.7 				"/>
				<path class="st15" d="M1669.4,1429.7l-223.2-4.9c-5.2,13.7-13,37-19.7,57.5l237.8,2.3L1669.4,1429.7z"/>
				<polygon class="st13" points="1446.1,1424.8 1446.1,1424.8 601.3,1406.4 611.1,1474.4 1426.4,1482.3 1426.4,1482.3 
					1664.2,1484.6 1669.4,1429.7 				"/>
				<polygon class="st15" points="1664.2,1484.6 1665,1476.8 1317.7,1473.1 1325.3,1422.2 1303.6,1421.7 1303.6,1481.1 
					1426.4,1482.3 				"/>
				<g>
					<path class="st14" d="M1340,1437.5c6.2,6.7,15.2,12.1,23.6,15.6c9.9,4.1,20.9,4.8,31.6,5.1c10.5,0.3,21.2,0.9,31.5-1.3
						c20.4-4.4,38-15.7,55.2-27c2.1-1.4,4.1-2.7,6.2-4.1l-31.5-0.7c-7.7,4.9-15.8,9.2-24.2,11.9c-8.3,2.6-15.9,4-24.6,4
						c-8.9,0-17.9,0.6-26.8-0.3c-8.8-0.9-16.4-4.2-24.2-8.2c-4.7-2.5-9.1-5.6-11.9-9.8l-12.9-0.3
						C1333.1,1427.9,1335.6,1432.9,1340,1437.5z"/>
					<path class="st14" d="M1633.1,1473.7c-17.8-7.8-36.8-11.9-55.9-15.3c-41.6-7.4-85.7-11.4-125.9,4.3
						c-12.7,5-24.7,11.5-35.6,19.5l10.8,0.1l12.5,0.1c20.8-10.5,43.9-15.8,67.9-16.4c20.2-0.5,40.3,1.9,60.1,5.5
						c17.3,3.2,34.6,6.6,51.1,12.7l34.9,0.3C1646.6,1480.2,1639.8,1476.6,1633.1,1473.7z"/>
					<path class="st14" d="M1620.9,1440.5c-24.9-2-49.2-7.5-73.3-13.5l-19.4-0.4c-1.6,3-0.9,7.4,3.4,8.5c30.2,8.1,60.6,16,91.7,19.2
						c13.6,1.4,28.9,2.6,43.7,1.2l1.5-15.6C1652.6,1442.1,1636.2,1441.7,1620.9,1440.5z"/>
					<path class="st14" d="M1311.1,1466.2c18.6,0.9,37.1,3.1,51,15.5l18.1,0.2c-2.8-3.5-5.9-6.7-9.4-9.5
						c-17.1-13.8-39.1-15.2-60.3-15.5C1310.8,1460,1310.9,1463.1,1311.1,1466.2z"/>
				</g>
				<path class="st13" d="M601.3,1406.4l9.9,68l387.7,3.8c0-12.9,0-42.6,0-63.1L601.3,1406.4z"/>
				<g>
					<path class="st14" d="M665.1,1421.7c14.7,7,31,8.9,47,10.2c17.6,1.4,35.5,1.9,52.4-4c8.3-2.9,16.1-7,23.9-11.1
						c4-2.1,8-4,11.8-6.1l-26.4-0.6c-3.4,1.8-6.9,3.5-10.5,4.9c-15.7,6.3-32.6,6.3-49.2,5.5c-15-0.8-30.8-1.8-44.7-8.1
						c-3-1.4-5.9-3-8.7-4.7l-16.8-0.4C650.6,1412.5,657.4,1418.1,665.1,1421.7z"/>
					<path class="st14" d="M626.5,1425.5c7.1,6.3,15.6,10.6,24.4,13.9c20.3,7.8,43.4,10.7,65,13.1c22.3,2.5,44.1,3.4,66-2.6
						c22-5.9,42.6-16.3,63.3-25.6c9.1-4.1,18.3-8.2,27.5-12.2l-36-0.8c-14.9,7-29.7,14.4-45.1,20.2c-20.1,7.5-39.8,10.1-61.2,8.8
						c-21.3-1.3-42.8-3.4-63.6-8.2c-10.8-2.5-21.9-5.8-31.1-12c-5.5-3.7-10.2-8.4-14.6-13.4l-11.8-0.3
						C614.7,1413.2,620.1,1419.9,626.5,1425.5z"/>
					<path class="st14" d="M988.8,1470.5c-16.1-9.6-33-17.5-51.5-21.1c-18.6-3.6-37.8-5.2-56.8-4c-35.7,2.2-70.9,14.3-102.8,30.6
						l27.4,0.3c24.4-10.2,50.5-17.3,76.6-18.6c17.8-0.9,35.8,0.6,53.3,4.1c16.1,3.3,30.4,10.9,45.7,16.2l9,0.1
						C991.6,1476,991.8,1472.3,988.8,1470.5z"/>
					<path class="st14" d="M998.9,1422.4c-13.8,2.8-27.5,4.6-41.8,2.9c-8.7-1-18.6-2.8-26.2-7.4c-2-1.2-3.6-2.7-5.1-4.4l-12.8-0.3
						c2.4,5.2,5.1,10.2,9.5,14c8,7,19,10.4,29.2,12.7c15.4,3.4,31.8,3.5,47.2-0.3C998.9,1433.8,998.9,1427.9,998.9,1422.4z"/>
				</g>
				<path class="st15" d="M988.2,1414.8c0,20.1,0,46.6,0,58.6l-377.7-3.7l0.7,4.6l387.7,3.8c0-12.9,0-42.6,0-63.1L988.2,1414.8z"/>
				<polygon class="st13" points="1659.1,1539.3 622.8,1554.9 627.5,1587 1653.4,1599.7 				"/>
				<path class="st0" d="M1017.4,1716"/>
				<g>
					<path class="st0" d="M921,1026.4l-373.5,9.1l46.3,321.2c53.9-2.2,174.8-4,344.5-5.5L921,1026.4z"/>
					<path class="st1" d="M742.9,1030.7c0,0-121.1,81.2-178.3,123.6l6.9,47.8l219-171.5H742.9z"/>
					<path class="st1" d="M855.3,1028l-6.4,0.2c0,0-183.5,152.1-269.7,227.5l7,48.4l314.7-277.2L855.3,1028z"/>
					<path class="st0" d="M1381.1,1016.6c-5.4,69.3-20.1,248.1-27,332c181.4-1,322.6-1.5,322.6-1.5l31.6-337.9L1381.1,1016.6z"/>
					<path class="st16" d="M1633.1,1269.2c17.6-14.4,35.8-27.9,54.7-40.6l7-75.2c-49.6,29.4-98.1,60.4-145.6,93
						c22.5-6.3,45.8-9.5,69.1-9.3c-51.2,40.6-106.8,75.2-161.6,111c26.8-0.1,52-0.2,75.1-0.4c48.9-22.1,97.8-44.2,146.7-66.2
						C1662.9,1279.3,1647.6,1275.2,1633.1,1269.2z"/>
				</g>
				<polygon class="st1" points="1602.5,1011.6 1370.8,1143.8 1366.6,1196.1 1636.4,1011.6 				"/>
				<polygon class="st1" points="1669.8,1009.2 1363,1247.5 1358.7,1299.9 1703.6,1009.2 				"/>
				<g>
					<path class="st16" d="M830.1,1256.2c33.6-14.6,67.2-29.3,100.8-43.9l-3.4-64c-65.6,39.5-131.2,79-196.8,118.5
						c-46.4,27.9-93,56-137.3,87.1l0.4,2.8c28.1-1.1,74.3-2.2,136.1-3.1c50.6-30.1,100.8-61.1,150.3-92.9
						C863.4,1262.2,846.3,1260.7,830.1,1256.2z"/>
				</g>
			</g>
			<g>
				<path class="st11" d="M642.5,663.6L539.2,430.2c-10.8-24.4,2.4-52.7,28.1-60.1l1091.2-207.5c28.6,0,49.3,27.1,42,54.7
					l-115.4,434L642.5,663.6z"/>
				<path class="st17" d="M1134.8,262.1L1134.8,262.1l-403.7,76.8c1.3,6.8,3.1,15.7,5,24.9c5.6,26.8,32.3,43.8,58.9,37.5l306.2-72.3
					C1130.9,322,1146.9,290,1134.8,262.1z"/>
				<path class="st4" d="M1600.7,229.2l-973.3,177c-18.2,3.3-29,22.3-22.4,39.7l130.4,342.5l757.6-49.1l139.5-475.8
					C1638.2,243.7,1620.8,224.9,1600.7,229.2z"/>
				<path class="st18" d="M659.2,588.2l76.2,200.1l757.6-49.1l88.1-300.5C1257.2,434.3,869.9,528.7,659.2,588.2z"/>
				<g>
					<g>
						<path class="st19" d="M489.8,730.5l-31.5,13.3c-12.7,5.3-19.8,19-16.8,32.4l1.4,6.4c2.9,13,14.4,22.3,27.8,22.3l40.2,0
							c21.3,0,35.1-22.5,25.4-41.5l-10.1-19.8C519.4,730.5,503.5,724.7,489.8,730.5z"/>
						<path class="st20" d="M1777.7,716.6c-1,0.4-2.1,0-2.7-1c-0.6-1.1-0.2-2.5,1-3l27.6-13.1l-2.7-9.2l-24.7,9.6
							c-1,0.4-2.1,0-2.7-1c-0.6-1.1-0.2-2.5,1-3l24.7-11.7l-4.2-14.5l-23,8.9c-1,0.4-2.1,0-2.7-1c-0.6-1.1-0.2-2.5,1-3l23-10.9
							l-3.4-11.4l-21.8,8.5c-1,0.4-2.1,0-2.7-1c-0.6-1.1-0.2-2.5,1-3l21.8-10.3l-3-10.4l-22.6,8.8c-1,0.4-2.1,0-2.7-1
							c-0.6-1.1-0.2-2.5,1-3l22.5-10.7l-2.6-8.7l-21.3,8.3c-1,0.4-2.1,0-2.7-1c-0.6-1.1-0.2-2.5,1-3l21.4-10.1l-2.3-7.7l-25.1,9.8
							c-1,0.4-2.1,0-2.7-1c-0.6-1.1-0.2-2.5,1-3l25-11.8l-2.5-8.4l-22.8,8.9c-1,0.4-2.1,0-2.7-1c-0.6-1.1-0.2-2.5,1-3l22.8-10.8
							l-2.5-8.6l-20.5,8c-1,0.4-2.1,0-2.7-1c-0.6-1.1-0.2-2.5,1-3l20.5-9.7l-3.3-11.1l-47.7,24.8l-28.1,186.8
							c1.2-0.8,35.7-4.5,56.6-6.8c10.2-1.1,19.7-5.7,26.8-13l37.5-38.5l-3.1-10.5L1777.7,716.6z"/>
						<path class="st11" d="M1761.3,738l-71.3,21.4l-2.3,15.1c1.2-0.8,35.7-4.5,56.6-6.8c10.2-1.1,19.7-5.7,26.8-13l37.5-38.5
							l-0.6-2L1761.3,738z"/>
						<path class="st21" d="M1636.3,537.5c0,0,61.6,5.9,80.6,20.6s30.7,121.7,18.9,162.7c-11.8,41-21.8,55.7-47.6,70.3
							c-25.8,14.6-72.7,9.1-72.7,9.1L1636.3,537.5z"/>
						<path class="st22" d="M1726,716.6c1.7-14.7,1.9-29.6,0.8-44.3c-5.1,14.7-8.3,30-9.4,45.5c-0.4-15-0.8-29.9-1.2-44.9
							c-3.1,17.2-6.1,34.4-9.2,51.5c1.4-17.4,1.9-34.8,1.7-52.2c-3,16.3-6.1,32.7-9.1,49c0.7-18,0.1-36.1-1.7-54c0,0.2,0,0.3,0,0.5
							c0.9,16.6,1.1,34,0.4,51.5c-0.4,10.6-3.1,20.8-7.7,30.1c13.5-1.8,26.7-4.7,39.3-10c2-5.5,3.9-11.7,5.9-18.6
							c1-3.5,1.8-7.4,2.5-11.8c-0.3-12.8-0.6-25.6-0.9-38.4C1731.5,685.4,1727.7,700.9,1726,716.6z"/>
						<path class="st22" d="M1690.8,641.7c1.6-18.1,3.3-36.2,4.9-54.3c3.3,15.6,6.6,31.1,9.9,46.7c-0.9-16.6-0.5-33.3,1.1-49.8
							c5.9,14.9,7.1,31.2,8.2,47.1c0.3-14.5,0.5-29,0.8-43.6c5.2,19.8,8.6,40.1,10,60.5c1.8-19.3,3.7-38.5,5.5-57.8
							c-3.9-16-9-27.9-14.4-32.4c-14.4-12.4-55.2-17.3-72.6-20.6c2.4,5.4,30.8,16.2,32.4,21.9
							C1684.4,586.2,1689.1,613.9,1690.8,641.7z"/>
						<path class="st20" d="M1615.6,755.8l0,44.4c0,0,46.9,5.6,72.7-9.1c21.5-12.2,32-24.4,41.7-51.7
							C1694.1,754.5,1654.1,750.2,1615.6,755.8z"/>
						<path class="st21" d="M1305,784.6c-118.9,6.8-249.2,8.3-387.1,4.3c-223.7-6.4-398.5-25.3-416.2-27.3c1.3,2.7,2.8,5.3,4.2,8
							c26.8,2.9,195.2,20.6,411.8,26.8c48.8,1.4,96.6,2.1,143.2,2.2c85.6,0.1,167.5-2.1,244.6-6.5c147.7-8.5,278.3-25.2,388.3-49.9
							c1.1-3,2-6.1,2.7-9.3C1586.7,757.6,1452.5,776.1,1305,784.6z"/>
						<path class="st19" d="M458.2,743.8"/>
					</g>
					<g>
						<path class="st1" d="M570,768.4C591.3,721,644.9,658.9,684,617.3c-78.4,26.3-133.8,49.5-162.8,60.2
							c-15.9,5.8-26.6,20.6-27.4,37.5c-1.3,28.3,3.8,39.3,10,50.9c16.6,3.8,39.1,7.9,69.7,12C571.3,772,570,768.4,570,768.4z"/>
						<path class="st1" d="M777.4,795.3c33.1,1.5,69.2,2.6,107.4,3.3c-2.5-6.8-4-11.1-4-11.1c22.4-83,142.7-208.1,201-265.2
							c-38.7,5.6-75.8,12-111.1,19C884.4,622.1,791.9,771.6,777.4,795.3z"/>
						<path class="st23" d="M880.8,787.6c0,0,1.6,4.3,4,11.1c26,0.5,53,0.8,80.7,0.8l-1.4-6.5c0,0,132.4-203.9,234.4-284.5
							c-40.4,3.8-79.3,8.5-116.7,13.9C1023.6,579.5,903.3,704.6,880.8,787.6z"/>
						<path class="st1" d="M964.1,793l1.4,6.5c36.5,0.1,74.3-0.2,112.6-0.9c-2.4-6.6-4-10.8-4-10.8c23.2-85.9,154.2-227.3,211-285.7
							c-29.6,1.6-58.5,3.8-86.7,6.4C1096.6,589.1,964.1,793,964.1,793z"/>
						<path class="st23" d="M573.4,777.7c17.7,2.4,38.1,4.8,61.6,7.1l-0.2-0.4c0,0,61.3-133.2,155.7-200
							c-39.2,11-74.7,22.2-106.5,32.9c-39,41.6-92.7,103.7-113.9,151.1C570,768.4,571.3,772,573.4,777.7z"/>
						<path class="st24" d="M714,791.7c19.5,1.4,40.8,2.6,63.4,3.6c14.5-23.8,107-173.2,193.3-254c-35.1,6.9-68.5,14.3-100.1,22
							c-45.1,52.9-134.3,161.8-160,219.2C710.7,782.5,711.9,786,714,791.7z"/>
						<path class="st1" d="M634.8,784.4l0.2,0.4c18.9,1.9,39.8,3.8,62.8,5.6c5.2,0.4,10.6,0.8,16.1,1.2c-2.1-5.7-3.4-9.2-3.4-9.2
							c25.7-57.4,114.9-166.3,160-219.2c-28.1,6.8-54.9,13.9-80.1,21C696.2,651.3,634.8,784.4,634.8,784.4z"/>
						<path class="st1" d="M1574.4,762.8c45.5-7.1,86.4-15.2,120.7-24.7c1.8-6.1,2.9-12.4,3.2-18.8c2.2-53.2-4.6-104.6-10.2-136.5
							c-0.1-0.6-0.2-1.1-0.3-1.6c-63.2,84.6-113.7,178.4-113.7,178.4L1574.4,762.8z"/>
						<path class="st24" d="M1655.6,533.2l-10.7-7.2c-60.3,68.8-143.8,173.2-162.4,242c0,0,0.9,2.5,2.4,6.6
							c31.3-3.5,61.3-7.5,89.5-11.8l-0.4-3.3c0,0,50.5-93.8,113.7-178.4C1683.8,561.6,1672.3,544.3,1655.6,533.2z"/>
						<path class="st1" d="M1358.6,779.5l0.7,6.7c43.4-3.2,85.6-7.1,125.6-11.6c-1.5-4.2-2.4-6.6-2.4-6.6
							c18.6-68.8,102.1-173.1,162.4-242l-12.7-8.5c-10-6.7-21.5-10.7-33.4-11.6c-12.9-1-25.7-1.9-38.4-2.7
							C1463.6,584.3,1358.6,779.5,1358.6,779.5z"/>
						<path class="st23" d="M1268.5,792c30.6-1.6,61-3.5,90.8-5.8l-0.7-6.7c0,0,105-195.2,201.8-276.3c-30.1-1.9-59.7-3.2-88.7-3.9
							c-52.5,56.4-181,201.3-204.6,288.7C1267,788,1267.5,789.4,1268.5,792z"/>
						<path class="st1" d="M1157.6,793.2l0.8,3.5c36.7-1.2,73.6-2.7,110.1-4.7c-0.9-2.5-1.5-4-1.5-4
							c23.6-87.4,152.1-232.3,204.6-288.7c-30.1-0.8-59.6-0.9-88.5-0.5C1282.4,578.7,1157.6,793.2,1157.6,793.2z"/>
						<path class="st24" d="M1078.2,798.6c26.5-0.5,53.3-1.1,80.1-2l-0.8-3.5c0,0,124.8-214.4,225.5-294.4
							c-33.4,0.4-66,1.6-97.9,3.3c-56.8,58.4-187.7,199.8-211,285.7C1074.3,787.8,1075.8,792,1078.2,798.6z"/>
						<path class="st2" d="M1365.3,841.1c52.4-4.5,99.6-9.2,138.9-13.5c-7-19.4-15.3-42-19.3-53c-40,4.5-82.2,8.4-125.6,11.6
							L1365.3,841.1z"/>
						<path class="st11" d="M1268.5,792c3.5,9.5,12.5,34.2,20.1,55.2c26.6-1.9,52.2-4,76.7-6.1l-6-54.9
							C1329.5,788.4,1299.1,790.3,1268.5,792z"/>
						<path class="st11" d="M1580.5,818.8l-6.1-56c-28.2,4.4-58.2,8.3-89.5,11.8c4,11,12.3,33.6,19.3,53
							C1534.7,824.3,1560.6,821.2,1580.5,818.8z"/>
						<path class="st11" d="M573.4,777.7c4.4,12.1,12.3,33.7,18.9,52c23.1,7.5,46.9,11.6,71.3,12.3l-28.6-57.2
							C611.6,782.5,591.2,780.1,573.4,777.7z"/>
						<path class="st2" d="M1580.5,818.8c9.7-1.2,18.1-2.3,24.8-3.1c13.6-1.8,26.4-7.5,36.8-16.4l30-25.8c11-9.4,18.9-21.7,23-35.3
							c-34.3,9.4-75.2,17.6-120.7,24.7L1580.5,818.8z"/>
						<path class="st2" d="M543.3,818.1c15.7,4.3,32.1,8.2,49.1,11.7c-6.6-18.3-14.5-40-18.9-52c-30.5-4.1-53.1-8.1-69.7-12
							c3.6,6.7,7.5,13.6,10.7,24.2C518.6,803.7,529.5,814.3,543.3,818.1z"/>
						<path class="st2" d="M697.9,790.5c-23.1-1.8-44-3.7-62.8-5.6l28.6,57.2c23.2,3.3,47.1,6,71.7,8.3c-7-19.5-16.4-45.2-21.3-58.7
							C708.5,791.3,703.1,790.9,697.9,790.5z"/>
						<path class="st2" d="M965.6,799.5l13.4,60.4c40.4-0.2,80.8-1,120.6-2.4c-6.8-18.9-16.2-44.5-21.4-58.8
							C1039.9,799.3,1002.1,799.6,965.6,799.5z"/>
						<path class="st11" d="M1078.2,798.6c5.2,14.3,14.6,39.9,21.4,58.8c24.1-0.8,48-1.9,71.6-3.1l-12.9-57.8
							C1131.5,797.5,1104.7,798.1,1078.2,798.6z"/>
						<path class="st2" d="M1158.4,796.6l12.9,57.8c40.4-2,79.8-4.5,117.4-7.2c-7.6-21-16.6-45.8-20.1-55.2
							C1232,793.9,1195.1,795.4,1158.4,796.6z"/>
						<path class="st11" d="M884.9,798.7c5.4,14.9,15.2,41.7,22.1,60.7c23.9,0.4,48,0.6,72.1,0.5l-13.4-60.4
							C937.9,799.4,910.9,799.1,884.9,798.7z"/>
						<path class="st2" d="M777.4,795.3c-1.3,2.1-2,3.2-2,3.2l28.5,57c33.7,2,68.2,3.2,103,3.9c-6.8-19-16.6-45.8-22.1-60.7
							C846.6,798,810.5,796.8,777.4,795.3z"/>
						<path class="st11" d="M777.4,795.3c-22.6-1-43.9-2.3-63.4-3.6c4.9,13.5,14.3,39.2,21.3,58.7c22.4,2.1,45.3,3.8,68.6,5.2
							l-28.5-57C775.5,798.6,776.1,797.4,777.4,795.3z"/>
					</g>
				</g>
				<path class="st11" d="M1780.5,805.6c-360.7-7.6-1140.3,28-1295.2,35.4c-15.2,0.7-27.1,13.2-27.1,28.4l0,35.7
					c0,15.9,12.9,28.7,28.8,28.5l1293.2-12.5c15.6-0.2,28.2-12.8,28.2-28.5l0.1-58.5C1808.4,818.6,1796,805.9,1780.5,805.6z"/>
				<path class="st17" d="M458.1,905.4c0.2,15.7,13,28.3,28.8,28.1l1293.2-12.5c15.6-0.2,28.2-12.8,28.2-28.5l0-20.9
					C1537,880.1,475.4,912.4,458.1,905.4z"/>
				<path class="st17" d="M699.2,859.6l-180.8-0.2c-8.1,0-14.7,6.6-14.8,14.7c0,8.1,6.6,14.7,14.7,14.8l180.8,0.2
					c8.1,0,14.7-6.6,14.8-14.7C713.9,866.3,707.3,859.6,699.2,859.6z"/>
				<path class="st17" d="M842,857.7l-91.9-0.1c-7.7,0-14,6.2-14,14c0,7.7,6.2,14,14,14l91.9,0.1c7.7,0,14-6.2,14-14
					C856,864,849.7,857.7,842,857.7z"/>
			</g>
			<path class="st0" d="M1017.4,1716"/>
			<g>
				<polygon class="st11" points="1008.8,1638.2 970.7,1136.1 1333,1076.1 1307.1,1638.4 				"/>
				<g>
					<polygon class="st25" points="976.7,1214.3 1008.8,1638.2 1020.8,1638.3 998.9,1223.7 					"/>
					<polygon class="st25" points="1022.6,1178.8 1282.2,1136.1 1300.8,1126 1332.7,1082.8 1333,1076.1 970.7,1136.1 1009,1170 
											"/>
					<path class="st18" d="M1009,1170c0,0,22.1,361.4,28.8,468.3l225.1,0.1l37.9-512.4L1009,1170z"/>
					<path class="st26" d="M1300.8,1126l-291.8,44c0,0,22.1,361.4,28.8,468.3l17.3,0c-5.5-70.9-31.4-446.7-31.4-446.7l261.5-43.3
						l-34.1,490.1l11.8,0L1300.8,1126z"/>
					<polygon class="st0" points="1032.6,1199.4 1047.5,1365.1 1268.5,1349 1268.5,1170.7 					"/>
					<path class="st16" d="M1154.7,1357.3l23.4-1.7c20.4-16.7,43.4-30.4,64.4-46.4c8.9-6.8,17.5-14,25.9-21.4v-77.8
						C1228.9,1257.8,1191,1306.9,1154.7,1357.3z"/>
					<g>
						<path class="st1" d="M1228,1175.6L1061.5,1364l24.5-1.8c40.6-41.4,182.4-191.6,182.4-191.6L1228,1175.6z"/>
						<path class="st1" d="M1204.5,1178.5l-38.2,4.7L1043.6,1322l2,22.8C1065,1325.7,1156,1229.7,1204.5,1178.5z"/>
					</g>
					<polygon class="st26" points="1055.4,1407.3 1256.1,1398.3 1235.8,1604.8 1066,1609.7 					"/>
					<g>
						<polygon class="st27" points="1238.7,1413.2 1223.5,1592.1 1235.8,1604.8 1256.1,1398.3 						"/>
						<polygon class="st26" points="1075.4,1596.8 1066.8,1609.6 1235.8,1604.8 1223.5,1592.1 						"/>
						<polygon class="st27" points="1075.4,1424.8 1055.7,1412.3 1066,1609.7 1066.8,1609.6 1075.4,1596.8 						"/>
					</g>
					<circle class="st26" cx="1051.4" cy="1409.7" r="24"/>
					<g>
						<circle class="st11" cx="1047.6" cy="1403.8" r="24"/>
						<circle class="st28" cx="1051.4" cy="1400.3" r="14.6"/>
					</g>
					<polygon class="st29" points="1075.4,1424.8 1075.4,1596.8 1223.5,1592.1 1238.7,1413.2 					"/>
					<g>
						<g>
							<path class="st25" d="M1094.3,1242.2c0,0,0.2-0.2,0.3-0.6l-4.8-1.6c0.3-0.8,0.7-2.2,49-46.4l1.3-1.2l61.6,31.8l-2.3,4.5
								l-58.5-30.2C1123.3,1214.7,1096,1239.9,1094.3,1242.2z"/>
						</g>
						<circle class="st25" cx="1140.2" cy="1198.1" r="8.7"/>
					</g>
					<polygon class="st16" points="1070.1,1245.6 1075.7,1297.6 1244,1282 1235.5,1217.2 					"/>
					<g>
						<path class="st24" d="M1239,1268.6l-6.9-52.6c-0.4-3.3-3.5-5.6-6.8-5l-153.9,26.4c-3.1,0.5-5.2,3.3-4.9,6.4l4.4,40.8
							c0.3,3.2,3.2,5.5,6.4,5.2l156.4-14.5C1237.1,1274.9,1239.5,1271.9,1239,1268.6z"/>
						<g>
							<path class="st1" d="M1096.4,1241.2c-2,0.5-2.4,2.7-1.5,4.2c-0.1,0.1-0.1,0.2-0.2,0.3c-3.4,6.3-9.3,15.1-5.5,22.3
								c3.7,6.9,11.9,6.7,17.6,2.4c5.9-4.4,8.5-13.2,6.7-20.2C1111.7,1242.8,1103.4,1239.4,1096.4,1241.2z M1105.1,1263.3
								c-3.2,4.4-11.5,6.3-11.7-1.3c-0.1-4.5,3.4-10.1,5.3-14c0.1-0.3,0.2-0.6,0.2-0.9c2.9,0.5,6,0.9,7.7,3.4
								C1108.8,1253.8,1107.3,1260.1,1105.1,1263.3z"/>
							<path class="st1" d="M1142.2,1244.6c0.8-3.8-1.3-7-4.6-8.7c-4.5-2.3-9.6-1.7-14.4-0.7c-2.4,0.5-2.3,3.3-0.7,4.5
								c-0.3,0.2-0.5,0.6-0.6,1c-0.8,5.3-1.8,10.5-2.9,15.8c-0.9,4.1-2.4,8.3-2.1,12.5c0.2,3,4.2,3.6,5.2,0.7
								c1.3-3.7,1.4-8.2,2-12.2c3.3,0.2,7.1-2.1,9.7-3.7C1137.2,1251.6,1141.3,1248.8,1142.2,1244.6z M1134.1,1246.2
								c-1.9,1.4-4.2,2.6-6.3,3.6c-1,0.4-1.9,0.7-2.9,1c0.4-3.2,0.7-6.4,1.1-9.6c0.1-0.5-0.1-0.9-0.4-1.3c2.8-0.5,5.8-0.7,8.5,0.3
								C1137.8,1241.7,1136.8,1244.2,1134.1,1246.2z"/>
							<path class="st1" d="M1154.9,1260.4c-2,0.7-4.1,1.7-6.2,2c-4.9,0.7-3.5-4.3-3-7.7c0.2-1.5,0.4-2.9,0.6-4.4
								c0.4,0.1,0.8,0.2,1.3,0.1c2.6-0.7,5.1-1.3,7.7-2c2.7-0.7,1.6-5-1.2-4.2c-2.4,0.7-4.8,1.4-7.1,2.1c0.4-2.5,0.8-5,1.2-7.4
								c3-0.6,6-1.1,8.8-2.2c1.8-0.7,1.7-3.7-0.5-3.6c-3.6,0.2-7.1,1.1-10.5,2.1c-0.2,0-0.4,0.1-0.6,0.2c-0.3,0.1-0.6,0.2-0.9,0.3
								c-1.8,0.5-1.7,2.7-0.5,3.5c-1,4.5-2,8.9-3,13.4c-0.9,3.7-2.3,8.3-1,12c2.6,7.4,12.6,4.2,17.3,1.2
								C1159.9,1264,1158.2,1259.1,1154.9,1260.4z"/>
							<path class="st1" d="M1197,1225c-0.2-3.8-5.3-3.6-5.7,0c-0.7,5.1-0.9,10.2-1.1,15.3c-0.1,1.8,0.5,9.1-0.1,12.1
								c-6.7-4.1-12.6-12.2-17.4-17.8c0-0.4,0.1-0.7,0.1-1.1c0.2-2.8-4-2.7-4.3,0c-0.7,5.9-1.5,11.7-2.2,17.6
								c-0.4,3.5-2.1,8.4,0.6,11.2c1,1.1,3,0.8,3.6-0.5c1.7-3.3,0.9-8.1,1-11.8c0.2-3.2,0.4-6.3,0.7-9.5c3.8,4.7,7.7,9.4,11.9,13.7
								c2.3,2.3,5.5,6.3,9.1,4.1c3.5-2.2,2.9-8.4,3-11.9C1196.5,1239.3,1197.4,1232.1,1197,1225z"/>
						</g>
						<path class="st30" d="M1239,1268.6l-6.9-52.6c-0.4-3.1-3.1-5.2-6.1-5.1c0.4,0.7,0.8,1.5,0.9,2.3l6.6,50.7
							c0.4,3.2-1.9,6.1-5.1,6.4l-150.6,14c-3.1,0.3-5.8-2-6.2-5l-4.2-39.2c0,0,0,0,0,0c-0.7,1.1-1.1,2.4-0.9,3.8l4.4,40.8
							c0.3,3.2,3.2,5.5,6.4,5.2l156.4-14.5C1237.1,1274.9,1239.5,1271.9,1239,1268.6z"/>
						<path class="st31" d="M1226.7,1269.2l-152.3,14.2c1,0.6,2.2,1,3.5,0.8l150.6-14c3.2-0.3,5.5-3.2,5.1-6.4l-6.6-50.7
							c-0.1-0.8-0.4-1.6-0.8-2.2c-0.3,0-0.5,0-0.8,0.1l-0.1,0l6.7,51.6C1232.4,1265.8,1230,1268.9,1226.7,1269.2z"/>
					</g>
				</g>
			</g>
			<g>
				<g>
					<polygon class="st25" points="528.2,1382.3 413.2,1422.2 364.7,1006.4 507.9,1006.4 					"/>
					<g>
						<polygon class="st17" points="430.5,1391.9 413.2,1422.2 528.2,1382.3 511.9,1364 						"/>
						<polygon class="st17" points="491.3,1027.9 508,1009.4 507.9,1006.4 364.7,1006.4 391.5,1025.7 						"/>
					</g>
					<polygon class="st24" points="391.5,1025.7 430.5,1391.9 511.9,1364 491.3,1027.9 					"/>
					<path class="st32" d="M427.9,1366.8l2.7,25.1l81.4-27.9l-20.7-336.1C491.3,1027.9,450.5,1246,427.9,1366.8z"/>
				</g>
				<g>
					<path class="st1" d="M472.4,1048.4c-10.9-8.5-22.2-13.6-36-8.4c-5.5,2.1-10.8,5-12.8,10.8c-2.3,6.6,1,12.6,4.9,17.9
						c4.1,5.6,8.6,11,13.4,16.1c4.5,4.8,10.2,9.4,12.6,15.7c3.8,9.8-10.2,4.4-14.1,1.6c-6.3-4.5-10.4-10.8-18.4-12.3
						c-3.1-0.5-6.9,2-5.6,5.6c4.5,12.1,18.2,23.4,31.5,24.2c14.5,0.9,23.5-10.3,18-23.9c-5.2-12.7-17.9-21.5-25.9-32.4
						c-1.8-2.4-6-6.7-3.9-9.7c1.6-2.2,6.4-3.4,8.9-4c8.2-1.9,14.8,2.4,21.1,6.9C470.9,1060,477.1,1052.1,472.4,1048.4L472.4,1048.4z
						"/>
				</g>
				<g>
					<path class="st1" d="M427.9,1140.2c0.7,12.6,1.8,25.2,3.3,37.7c0.9,7.5-0.1,22.3,9.2,24.9c3.9,1.1,8.6-2.9,7-7
						c-2.8-7.5-3.6-16.5-4.9-24.4c-1.7-10.4-2.9-20.8-3.9-31.2C437.9,1133.5,427.5,1133.3,427.9,1140.2L427.9,1140.2z"/>
				</g>
				<g>
					<path class="st1" d="M438,1175.8c7.9-2.2,16.1-3.4,24.2-4.7c7.4-1.2,14.9-1.6,20.7-6.8c2.7-2.4,1.5-8-2.3-8.6
						c-15.4-2.4-31.4,4.1-45.6,9.5C428.6,1167.7,431,1177.7,438,1175.8L438,1175.8z"/>
				</g>
				<g>
					<path class="st1" d="M472.4,1127.7c-0.2,14.7,0.6,29.2,3.4,43.7c2.6,13.8,4.4,28.6,9.6,41.7c1.4,3.7,8.1,5,8.9,0
						c2.2-14.1-2.5-28-5.8-41.6c-3.6-14.8-4.8-30-7.8-44.9C479.8,1121.8,472.5,1123.1,472.4,1127.7L472.4,1127.7z"/>
				</g>
				<g>
					<path class="st1" d="M459.2,1220c-6.3-1.1-11.8-1.1-16.4,3.9c-4.4,4.9-6.9,12-8.1,18.3c-2.7,14.4,6,26.8,21.2,26.5
						c15.9-0.2,28.9-11.1,26.6-27.8c-1.7-12.8-15.5-30.6-29.8-21.4c-3.9,2.5-3.5,9,1.3,10.2c6.4,1.6,12.1,4.8,13.8,11.4
						c2.3,8.8-3.4,13.8-11.9,14.1c-8.3,0.4-10-5.4-9.1-12.7c0.9-6.6,3.1-16,11.3-15C462.5,1228.1,463.6,1220.7,459.2,1220
						L459.2,1220z"/>
				</g>
				<g>
					<path class="st1" d="M453.3,1302.2c1.7,11,3.5,22.1,5.1,33.1c1.2,8.2,1.4,19.2,5.8,26.4c4.4,7.3,14.4,2.2,13.1-5.5
						c-3.2-19.2-8.8-38.1-12.8-57.2C462.9,1291.7,452.2,1295,453.3,1302.2L453.3,1302.2z"/>
				</g>
				<g>
					<path class="st1" d="M456.9,1301c5.4,0.6,24.4,1.3,26.3,8.3c1.5,5.8-11.4,14.5-14.9,17.9c-3.6,3.5-1.1,11.1,4.4,10.6
						c8.5-0.8,13.5-5.5,18.4-12.3c3.8-5.3,7-12.4,5-18.9c-4.6-15-26.7-14.7-39.1-15.5C450.4,1290.7,450.7,1300.3,456.9,1301
						L456.9,1301z"/>
				</g>
			</g>
			<g>
				<path class="st1" d="M940.5,442.6c10.2-0.5,20.4-0.9,30.6-1.9c10.3-1,20-3.5,30.1-5.5c8.9-1.7,6.3-14.8-2.1-15.2
					c-10-0.5-19.6,1.7-29.5,3.1c-9.7,1.4-19.4,2.2-29.1,3.2c-4.4,0.4-8.1,3.4-8.1,8.1C932.4,438.7,936.1,442.9,940.5,442.6
					L940.5,442.6z"/>
			</g>
			<g>
				<path class="st1" d="M1058.2,516.5c0-0.1-0.1-0.3-0.1-0.4c-0.3-1.2-0.7-2.5-1-3.7c-1.1-3.7-2.8-7.1-4.5-10.6
					c-3.6-7.4-7.5-14.8-11.5-22c-8.5-15.2-18.4-29.6-27.7-44.4c-9.2-14.7-17.6-30-25.7-45.3c-4-7.6-7.7-15.3-12.3-22.6
					c-3.4-5.3-9.2-10.1-10.1-16.5c-1.3-8.8-13.7-7.7-16.6-0.7c-0.1,0-0.2,0-0.2,0c-4.8,0-10.3,4.5-9.7,9.7c1.8,16.8-0.1,33.3-1.1,50
					c-1.1,17.5-1.5,35.1-1.5,52.7c0,6.4,0,12.8,0.1,19.2c-0.1-4.7-1.3-9.4-3.8-13.9c-9.1-16-29-20.3-46-21
					c-17.2-0.7-34.4,0.2-51.5,2.4c-8.4,1.1-16.7,2.4-24.9,4c20.1-12.3,42-24.7,55.4-44.1c9.8-14.2,4.7-32.7-12-38.3
					c-11.3-3.8-25-2.2-36.6-1.3c-30,2.4-59.4,9.3-87.1,20.9c-28.8,12.1-54.6,28.4-74.7,52.7c-8.1,9.8,5.4,23.8,14.2,14.2
					c7.7-8.5,15.9-16.4,25.8-22.3c6.8-4.1,14.1-7.7,21.5-11c3.4,14.9,6.9,29.7,10,44.6c-4.8,3.7-9.5,7.6-14.1,11.6
					c-11.1,10-2,28.1,11.7,28.3c3,0.1,6.1-0.2,9.1-0.7c2,15.2,3.8,30.5,6.7,45.6c2.5,13.2,3,25.7,12.1,36.5c1.8,2.1,4.2,3.5,6.9,4.1
					c-3.1,1.7-6.1,3.4-9.2,5.1c-13.1,7.3-26.5,14.9-40.6,19.9c-10.7,3.8-12.9,21.2,0,24c18.2,4,34.5-2.6,50.3-11.2
					c15.2-8.2,30.4-16.6,45.3-25.5c30.1-18.1,60.3-37.3,87.8-59.2c12.8-10.2,24.4-21.9,33.6-35.5c5.6-8.4,10.2-18.8,10.3-29
					c0.1,10,0.3,19.9,0.9,29.9c0.4,7.4,1.2,14.8,2.1,22.2c1,7.9,1.9,16.7,6.3,23.6c7.5,12,24.7,6.5,25.7-7c0.2-3.3-0.6-6-1.9-8.9
					c-7.1-27.2-7.4-55.7-8.4-83.8c-0.6-16.3-1.4-32.7-1.5-49c-0.1-9.2,0.2-18.4,0.1-27.6c2.3,5.4,4.3,10.9,6.5,16.2
					c7.5,17.5,15.2,34.9,24.6,51.5c9.2,16.2,19.2,31.9,27.3,48.7c3.4,7.1,7.7,16,10.2,22.1c2.8,6.8,7.7,16.3,18.2,16
					c9.1-0.3,14.9-8.3,13-17C1059.1,518.6,1058.7,517.5,1058.2,516.5z M842.9,400.2C844,400.4,843,400.7,842.9,400.2L842.9,400.2z
					 M742,414.3c18-6,36.8-10.4,55.4-12.8c11.2-1.5,22.7-2.2,34.1-2c-15,13.5-34,23.3-50.9,33.8c-9.6,5.9-19.2,11.8-28.7,17.9
					C748.8,438.8,745.4,426.6,742,414.3z M898.1,493.7c-6.8,10.5-16.3,19.5-26,27.5c-23.4,19.3-50.2,35.8-76.1,51.7
					c-6,3.7-12,7.2-18,10.7c1.1-3.9,0.5-8.2-1.3-12.4c0.9,2.1-0.1-0.6-0.3-1.4c-0.4-1.4-0.9-2.7-1.3-4.1c-0.7-2.5-1.2-5.2-1.7-7.8
					c-1-5.5-1.9-10.9-3-16.3c-2.9-14-5.2-28.2-7.7-42.3c1.1-0.3,2.2-0.7,3.2-1c15.7-4.3,31.5-8.5,47.5-11.8c15-3.1,30.1-5.2,45.5-6
					c13.3-0.7,29-2,40.2,1.8c1.5,0.5,2.5,0.9,3.7,1.7c-0.2,0.7-0.4,1.5-0.7,2.2c-0.1-0.1-1.4,3-1.4,3.1
					C899.9,490.9,899,492.3,898.1,493.7z M903.6,484.8c0,0,0-0.1,0-0.1C904.7,485.8,904.7,485.8,903.6,484.8z M1034.4,518.5
					C1034.5,518.4,1034.5,518.4,1034.4,518.5c0,0.2,0,0.4,0,0.7C1034.4,518.9,1034.4,518.7,1034.4,518.5z M1058.7,519.3
					c0-0.1,0-0.2,0-0.3c0.1,0.1,0.1,0.2,0.2,0.4C1059.1,521.9,1059,521.9,1058.7,519.3z"/>
				<path class="st1" d="M1046,372.9C1046.1,372.9,1046.1,372.9,1046,372.9c0.4-0.2,0.7-0.4,1-0.6
					C1047.8,371.8,1048,371.6,1046,372.9z"/>
				<path class="st1" d="M1585.9,376.9c-29.9-10.2-61.5-17-92.6-23.2c-14.5-2.9-29.3-5.9-44.1-7.1c7.6-8,14.4-17.2,17.9-27.8
					c8-24.3-13.1-48.3-35.6-54.7c-18.2-5.2-43.1,0.7-53.8,17.2c-2.9,1.4-5.1,4.2-5.2,8.5c-0.2,8.5-0.6,17-0.8,25.6
					c-1.1-5.3-5.4-10-12.7-10.6c-14.8-1.4-29.1,0.5-43.8,2.4c-7,0.9-14,1.9-21,3.4c-0.1,0-0.1,0-0.2,0c-4.6-10.1-22.3-8.9-21.9,4.3
					c0,0.2,0,0.4,0,0.6c-5.4,1-9.9,5.1-9.9,11.1c0,5.5,4.5,10.9,10.1,11.3c0.1,11.3,0.1,22.7,0.9,33.9c-5.3-3.1-11-5.4-16.7-6.6
					c-7.6-1.7-15.4-2.1-23.1-1.9c1.2-1.5,2.5-3.1,3.7-4.6c6-7.5,10.1-16.2,7.4-26c-2.7-9.6-10.6-14.8-19.3-18.2
					c-17.4-6.8-34.7-6-52.8-3.3c-8.1,1.2-16.4,2.3-24.4,3.9c-1,0.2-1.9,0.4-2.9,0.6c-3.7-0.7-7.5,0.8-9.9,3.4
					c-2.3,1.3-4.3,3.1-6,5.7c-4.9,7.5,3.7,17.7,11.6,15c4.8,7.8,9.3,15.9,13.3,24.1c5.6,11.5,10,23.5,15,35.3c2.4,5.6,5,11,7.8,16.4
					c-3.2-0.8-6.5-1.6-9.7-2.4c-21.3-5.1-42.7-10.1-64.1-14.8c-9.9-2.2-19.9-4.3-29.9-6.3c2.7-1.5,5.4-3.1,8.1-4.6
					c15.3-9,31.3-22.1,34.5-40.6c1.7-9.4-0.2-18.8-6.6-26.1c-6.9-7.8-16.9-10.2-26.9-11c-11.1-0.8-22.3,2-33.2,3.9
					c-12,2.1-24,4.4-36,6.7c-1.1,0.2-2.1,0.7-3,1.3c-6.7-0.7-13.8,4.4-11.2,12.7c5.8,18.3,9.9,37.2,16.2,55.4
					c6.3,18.2,14.3,35.9,21,53.9c6.9,18.5,13.2,37.2,19.1,56c3.9,12.3,6.2,36.5,24.1,35.1c10.4-0.8,18.8-13.8,11.2-22.4
					c-0.3-0.9-0.6-1.7-0.8-2.6c-0.7-2.3-1.2-4.6-1.8-6.8c-2.1-7.7-5-15.2-7.7-22.7c-6.4-17.8-13.4-35.4-21-52.7c-1-2.2-2-4.4-3-6.6
					c0.3,0.1,0.7,0.1,1,0.2c10.9,2.3,21.7,4.8,32.5,7.5c21.6,5.3,43.2,10.9,64.8,16.5c5.9,1.5,11.7,3.1,17.6,4.6c0,0.3,0,0.5,0,0.8
					c0,9.4,7.5,15.4,16.2,16.2c13,1.2,25.8,0.2,38.2-2.8c20,5.1,40,9.5,60.1,13.9c7,1.5,14.3-1.5,17-8.4c2.5-6.3,0.6-14.7-5.9-18
					c-7.5-3.9-15.2-7-23.1-9.8c4.6-3.6,8.9-7.7,12.4-12.2c2,3.6,4.3,7,7.1,10.3c13.3,15.8,34.1,25.3,54.1,29.1
					c10.7,2.1,21.8,3.6,32.4,0.7c10.3-2.8,18.2-9.7,25.8-16.9c0.7-0.7,1.4-1.4,1.9-2.2c5.1,1.5,11.4,0.6,14.9-3.6
					c6.5-7.8,7.6-16.9,6.6-26.8c-0.4-3.7-1-7.4-1.6-11.1c0.1,0.3-0.6-4.4-0.5-4.1c-0.2-1.2-0.3-2.3-0.5-3.5c-0.5-3.1-1-6.1-1.6-9.2
					c-1-4.9-2-9.8-3.2-14.8c2.3-0.1,4.5-0.2,6.7-0.1c16.6,0.1,32.4,2.8,48.6,6.1c33.5,7,66.4,17.9,100.1,23.3
					c8.3,1.3,16.7-2.1,19.1-10.8C1599.1,387.4,1593.9,379.6,1585.9,376.9z M1077.6,332.5c3.5,0.4,7.5,0.9,10.5,2.7
					c1.7,1,1.7,1.1,2.1,2.5c-0.4-1.6-0.1,0.3,0,1.4c-0.1,0.4-0.5,2.4-0.6,2.7c-0.5,1.5-2,4.5-3.4,6.4c-8.3,11.1-24.1,16.8-36.4,22.8
					c-0.8,0.4-1.8,0.8-2.7,1.2c-0.2,0.2-0.6,0.4-0.9,0.5c-0.1,0-0.1,0.1-0.2,0.1c0,0,0.1,0,0.1-0.1c-0.1,0.1-0.2,0.1-0.3,0.1
					c-3.3,1.3-6.6,2.7-9.8,4.2c-5.3-12.5-9.3-25.5-13.5-38.4c8.7-1.3,17.4-2.6,26.1-3.8C1058,333.7,1068,331.6,1077.6,332.5z
					 M1403.3,298.7C1403.3,298.7,1403.3,298.7,1403.3,298.7C1403.3,298.5,1403.3,298.4,1403.3,298.7z M1403.4,299.1
					c0,0.1,0,0.2,0,0.3c0-0.2,0-0.4,0-0.6c0,0,0,0,0,0C1403.3,298.9,1403.4,299,1403.4,299.1z M1359,331.7
					c7.2-0.6,11.4-5.1,12.7-10.2c0,3.4,0.1,6.9,0.2,10.3c0.4,9,1.3,17.9,2.6,26.8c-25,2.5-50,6.3-75,9.8
					c-1.6-10.8-2.5-21.7-3.2-32.6c6.3-0.6,12.5-1.2,18.8-1.6C1329.8,333.4,1344.4,332.9,1359,331.7z M1162.3,337.2
					c3.7-0.2,7.5-0.4,11.2-0.6c12.5-0.7,25.2-1.2,37.2,3.2c0.7,0.3,1.2,0.5,1.7,0.7c-1.2,1.3-2.3,2.5-3.5,3.8c-4,4.5-8,9-12.4,13.2
					c-4.4,4.2-9.7,7.3-14.5,11.3c-0.4,0.4-0.8,0.8-1.2,1.2C1174.8,358.9,1168.8,348,1162.3,337.2z M1208.5,418.7
					c-4.2-6.7-8.4-13.5-12.3-20.4c3.6,0.3,7.3,0,11-0.2c9.3-0.5,18.6-1.4,28-1.4c2.1,0,4.3,0,6.4,0.1c0.4,0,3.4,0.3,3.5,0.3
					c1.4,0.2,2.8,0.5,4.2,0.9c0.1,0,3.8,1.2,3.2,0.9c3.4,1.4,5.6,3.1,7.6,5c0.5,0.4,0.9,0.9,1.3,1.4c-0.3,0.7-0.8,1.8-1.1,2.2
					c-0.2,0.4-0.4,0.7-0.5,0.9c-0.1,0.1-0.4,0.3-0.8,0.7c-1.4,1.3-2.7,2.8-4.2,4.1c-0.5,0.5-1.1,0.9-1.6,1.4
					c-0.2,0.2-0.5,0.4-0.9,0.6c-1.3,0.9-2.7,1.8-4.1,2.7c-3,1.9-6,3.5-9.2,5.1c-4.2,2-8.4,3.7-12.8,5.1c-4.7-1.2-9.5-2.5-14.2-3.7
					C1210.9,422.4,1209.6,420.5,1208.5,418.7z M1379.1,434.6c0.7-0.3-2.8,1-3.5,1.2c-0.6,0.2-4.2,0.9-3.7,1c-1.8,0.1-8-0.4-11.2-0.6
					c-3.8-0.3-5.1-0.4-9.5-1.3c-7.6-1.5-14.4-3.7-20.8-7c-6-3.2-12.2-7.9-15.5-12.2c-5.5-7.2-8.7-15.6-11-24.6
					c10.8-0.5,21.7-1,32.5-1.5c13.8-0.6,29.3,0.5,43.2-2.9c2.1,9.3,4.5,18.6,7.5,27.6c1.5,4.6,3.5,8.9,5.3,13.4
					c-1.4,0.3-2.8,0.9-4.2,1.7C1385.6,430.9,1380.8,433.9,1379.1,434.6z M1409.6,326.8c-1.3-5.4-2.6-10.8-3.9-16.2c-0.5-2-1-4-1.5-6
					c-0.2-0.8-0.4-1.6-0.5-2.5c-0.1-0.2-0.1-0.4-0.1-0.6c0,0,0-0.2,0-0.7c0-0.1,0-0.6-0.1-1.1c0,0.1,0-0.7,0.1-1.2
					c0.2-0.3,0.5-0.7,0.5-0.7c2.4-2.7,4.7-3.4,7.9-4.3c6.3-1.7,11.5-1.1,17.3,2.8c2.9,1.9,5.4,3.8,7.8,6.9c1.3,1.6,2.1,3.5,1.8,5
					c-1.4,7.6-9.2,15.3-15.3,20.9c-3.5,3.3-7.2,6.4-11,9.3C1411.5,334.6,1410.5,330.7,1409.6,326.8z"/>
			</g>
		</g>
	</g>
</g>
<g id="object">
</g>
</svg>
