<?xml version="1.0" encoding="utf-8"?>
<!-- Generator: Adobe Illustrator 22.1.0, SVG Export Plug-In . SVG Version: 6.00 Build 0)  -->
<svg version="1.1" xmlns="http://www.w3.org/2000/svg" xmlns:xlink="http://www.w3.org/1999/xlink" x="0px" y="0px"
	 viewBox="0 0 2272 1872" style="enable-background:new 0 0 2272 1872;" xml:space="preserve">
<style type="text/css">
	.st0{fill:#FFFFFF;}
	.st1{fill:#F3F3FF;}
	.st2{fill:#ADACCC;}
	.st3{fill:#C5C5E2;}
	.st4{opacity:0.57;}
	.st5{fill:#8681BD;}
	.st6{fill:none;}
	.st7{fill:#D5D3EA;}
	.st8{fill:#FFB717;}
	.st9{fill:#C68A12;}
	.st10{fill:#FFEECB;}
	.st11{fill:#2D3E51;}
	.st12{fill:#A4D38F;}
	.st13{fill:#440235;}
	.st14{fill:#EC5B44;}
	.st15{fill:#FF7061;}
	.st16{fill:#619B42;}
	.st17{fill:#FEC83D;}
	.st18{fill:#FFD67B;}
	.st19{fill:#F9AE90;}
	.st20{fill:#A06652;}
	.st21{fill:#EF7C2E;}
	.st22{fill:#AF5B23;}
	.st23{fill:#378893;}
	.st24{fill:#4DA8BB;}
	.st25{fill:#F3776B;}
	.st26{fill:#AF403A;}
	.st27{fill:#44637F;}
	.st28{fill:none;stroke:#440235;stroke-width:23;stroke-linecap:round;stroke-linejoin:round;stroke-miterlimit:10;}
</style>
<g id="Background">
	<g id="Layer_1_1_">
	</g>
	<g id="Layer_2">
	</g>
	<g id="Layer_1_2_">
	</g>
	<g id="Layer_2_1_">
	</g>
	<g>
		<g>
			<rect x="0" class="st0" width="2272" height="1872"/>
		</g>
	</g>
</g>
<g id="object">
	<g>
		<g>
			<path class="st1" d="M350.6,1608.4l-75.2-51.8L155.8,416.2c0,0,1813.4-94.9,1989.4-101.6l-74.6,1265.6L350.6,1608.4z"/>
			<g>
				<g>
					<path class="st2" d="M1498.7,1073.5h42.3c11.4,0,20.7,9.3,20.7,20.7v120.6H1478v-120.6
						C1478,1082.8,1487.3,1073.5,1498.7,1073.5z"/>
					
						<rect x="1478" y="1128.7" transform="matrix(-1 -4.489488e-11 4.489488e-11 -1 3039.7676 2304.7759)" class="st3" width="83.7" height="47.4"/>
				</g>
				<g>
					<path class="st2" d="M1396.3,1086.7h38.4c10.4,0,18.8,8.4,18.8,18.8v109.4h-75.9v-109.4
						C1377.5,1095.1,1385.9,1086.7,1396.3,1086.7z"/>
					
						<rect x="1377.5" y="1136.7" transform="matrix(-1 -4.485935e-11 4.485935e-11 -1 2830.9863 2316.4097)" class="st3" width="75.9" height="43"/>
				</g>
			</g>
			<g>
				<g>
					<rect x="1074.7" y="914" class="st3" width="77.1" height="44.7"/>
					<path class="st2" d="M1149.7,894.1h-72.9c-6,0-10.9,3.7-10.9,8.4v9c0,4.6,4.9,8.4,10.9,8.4h72.9c6,0,10.9-3.7,10.9-8.4v-9
						C1160.6,897.9,1155.7,894.1,1149.7,894.1z"/>
				</g>
				<g>
					<rect x="1172.2" y="914" class="st3" width="77.1" height="44.7"/>
					<path class="st2" d="M1247.2,894.1h-72.9c-6,0-10.9,3.7-10.9,8.4v9c0,4.6,4.9,8.4,10.9,8.4h72.9c6,0,10.9-3.7,10.9-8.4v-9
						C1258.2,897.9,1253.3,894.1,1247.2,894.1z"/>
				</g>
				<g>
					<rect x="1080.3" y="851.4" class="st3" width="77.1" height="44.7"/>
					<path class="st2" d="M1155.3,831.6h-72.9c-6,0-10.9,3.7-10.9,8.4v9c0,4.6,4.9,8.4,10.9,8.4h72.9c6,0,10.9-3.7,10.9-8.4v-9
						C1166.2,835.4,1161.4,831.6,1155.3,831.6z"/>
				</g>
				<g>
					<rect x="1172.2" y="851.4" class="st3" width="77.1" height="44.7"/>
					<path class="st2" d="M1247.2,831.6h-72.9c-6,0-10.9,3.7-10.9,8.4v9c0,4.6,4.9,8.4,10.9,8.4h72.9c6,0,10.9-3.7,10.9-8.4v-9
						C1258.2,835.4,1253.3,831.6,1247.2,831.6z"/>
				</g>
			</g>
			<g>
				<g>
					<rect x="400.7" y="914" class="st3" width="77.1" height="44.7"/>
					<path class="st2" d="M475.7,894.1h-72.9c-6,0-10.9,3.7-10.9,8.4v9c0,4.6,4.9,8.4,10.9,8.4h72.9c6,0,10.9-3.7,10.9-8.4v-9
						C486.6,897.9,481.7,894.1,475.7,894.1z"/>
				</g>
				<g>
					<rect x="498.2" y="914" class="st3" width="77.1" height="44.7"/>
					<path class="st2" d="M573.2,894.1h-72.9c-6,0-10.9,3.7-10.9,8.4v9c0,4.6,4.9,8.4,10.9,8.4h72.9c6,0,10.9-3.7,10.9-8.4v-9
						C584.1,897.9,579.2,894.1,573.2,894.1z"/>
				</g>
				<g>
					<rect x="406.3" y="851.4" class="st3" width="77.1" height="44.7"/>
					<path class="st2" d="M481.3,831.6h-72.9c-6,0-10.9,3.7-10.9,8.4v9c0,4.6,4.9,8.4,10.9,8.4h72.9c6,0,10.9-3.7,10.9-8.4v-9
						C492.2,835.4,487.3,831.6,481.3,831.6z"/>
				</g>
				<g>
					<rect x="498.2" y="851.4" class="st3" width="77.1" height="44.7"/>
					<path class="st2" d="M573.2,831.6h-72.9c-6,0-10.9,3.7-10.9,8.4v9c0,4.6,4.9,8.4,10.9,8.4h72.9c6,0,10.9-3.7,10.9-8.4v-9
						C584.1,835.4,579.2,831.6,573.2,831.6z"/>
				</g>
			</g>
			<g>
				<g>
					<rect x="725.7" y="1168.7" class="st3" width="77.1" height="44.7"/>
					<path class="st2" d="M800.7,1148.8h-72.9c-6,0-10.9,3.7-10.9,8.4v9c0,4.6,4.9,8.4,10.9,8.4h72.9c6,0,10.9-3.7,10.9-8.4v-9
						C811.6,1152.6,806.7,1148.8,800.7,1148.8z"/>
				</g>
				<g>
					<rect x="823.2" y="1168.7" class="st3" width="77.1" height="44.7"/>
					<path class="st2" d="M898.2,1148.8h-72.9c-6,0-10.9,3.7-10.9,8.4v9c0,4.6,4.9,8.4,10.9,8.4h72.9c6,0,10.9-3.7,10.9-8.4v-9
						C909.1,1152.6,904.2,1148.8,898.2,1148.8z"/>
				</g>
				<g>
					<rect x="731.3" y="1106.1" class="st3" width="77.1" height="44.7"/>
					<path class="st2" d="M806.3,1086.3h-72.9c-6,0-10.9,3.7-10.9,8.4v9c0,4.6,4.9,8.4,10.9,8.4h72.9c6,0,10.9-3.7,10.9-8.4v-9
						C817.2,1090.1,812.3,1086.3,806.3,1086.3z"/>
				</g>
				<g>
					<rect x="823.2" y="1106.1" class="st3" width="77.1" height="44.7"/>
					<path class="st2" d="M898.2,1086.3h-72.9c-6,0-10.9,3.7-10.9,8.4v9c0,4.6,4.9,8.4,10.9,8.4h72.9c6,0,10.9-3.7,10.9-8.4v-9
						C909.1,1090.1,904.2,1086.3,898.2,1086.3z"/>
				</g>
			</g>
			<g>
				<g>
					<rect x="1063.2" y="1168.7" class="st3" width="77.1" height="44.7"/>
					<path class="st2" d="M1138.2,1148.8h-72.9c-6,0-10.9,3.7-10.9,8.4v9c0,4.6,4.9,8.4,10.9,8.4h72.9c6,0,10.9-3.7,10.9-8.4v-9
						C1149.1,1152.6,1144.2,1148.8,1138.2,1148.8z"/>
				</g>
				<g>
					<rect x="1160.8" y="1168.7" class="st3" width="77.1" height="44.7"/>
					<path class="st2" d="M1235.8,1148.8h-72.9c-6,0-10.9,3.7-10.9,8.4v9c0,4.6,4.9,8.4,10.9,8.4h72.9c6,0,10.9-3.7,10.9-8.4v-9
						C1246.7,1152.6,1241.8,1148.8,1235.8,1148.8z"/>
				</g>
				<g>
					<rect x="1068.9" y="1106.1" class="st3" width="77.1" height="44.7"/>
					<path class="st2" d="M1143.8,1086.3h-72.9c-6,0-10.9,3.7-10.9,8.4v9c0,4.6,4.9,8.4,10.9,8.4h72.9c6,0,10.9-3.7,10.9-8.4v-9
						C1154.8,1090.1,1149.9,1086.3,1143.8,1086.3z"/>
				</g>
				<g>
					<rect x="1160.8" y="1106.1" class="st3" width="77.1" height="44.7"/>
					<path class="st2" d="M1235.8,1086.3h-72.9c-6,0-10.9,3.7-10.9,8.4v9c0,4.6,4.9,8.4,10.9,8.4h72.9c6,0,10.9-3.7,10.9-8.4v-9
						C1246.7,1090.1,1241.8,1086.3,1235.8,1086.3z"/>
				</g>
			</g>
			<g>
				<g>
					<rect x="1372.1" y="914" class="st3" width="77.1" height="44.7"/>
					<path class="st2" d="M1447.1,894.1h-72.9c-6,0-10.9,3.7-10.9,8.4v9c0,4.6,4.9,8.4,10.9,8.4h72.9c6,0,10.9-3.7,10.9-8.4v-9
						C1458,897.9,1453.1,894.1,1447.1,894.1z"/>
				</g>
				<g>
					<rect x="1469.6" y="914" class="st3" width="77.1" height="44.7"/>
					<path class="st2" d="M1544.6,894.1h-72.9c-6,0-10.9,3.7-10.9,8.4v9c0,4.6,4.9,8.4,10.9,8.4h72.9c6,0,10.9-3.7,10.9-8.4v-9
						C1555.5,897.9,1550.7,894.1,1544.6,894.1z"/>
				</g>
				<g>
					<rect x="1377.7" y="851.4" class="st3" width="77.1" height="44.7"/>
					<path class="st2" d="M1452.7,831.6h-72.9c-6,0-10.9,3.7-10.9,8.4v9c0,4.6,4.9,8.4,10.9,8.4h72.9c6,0,10.9-3.7,10.9-8.4v-9
						C1463.6,835.4,1458.7,831.6,1452.7,831.6z"/>
				</g>
				<g>
					<rect x="1469.6" y="851.4" class="st3" width="77.1" height="44.7"/>
					<path class="st2" d="M1544.6,831.6h-72.9c-6,0-10.9,3.7-10.9,8.4v9c0,4.6,4.9,8.4,10.9,8.4h72.9c6,0,10.9-3.7,10.9-8.4v-9
						C1555.5,835.4,1550.7,831.6,1544.6,831.6z"/>
				</g>
			</g>
			<g>
				<g>
					<rect x="1694.9" y="914" class="st3" width="77.1" height="44.7"/>
					<path class="st2" d="M1769.9,894.1H1697c-6,0-10.9,3.7-10.9,8.4v9c0,4.6,4.9,8.4,10.9,8.4h72.9c6,0,10.9-3.7,10.9-8.4v-9
						C1780.8,897.9,1775.9,894.1,1769.9,894.1z"/>
				</g>
				<g>
					<rect x="1792.4" y="914" class="st3" width="77.1" height="44.7"/>
					<path class="st2" d="M1867.4,894.1h-72.9c-6,0-10.9,3.7-10.9,8.4v9c0,4.6,4.9,8.4,10.9,8.4h72.9c6,0,10.9-3.7,10.9-8.4v-9
						C1878.3,897.9,1873.5,894.1,1867.4,894.1z"/>
				</g>
				<g>
					<rect x="1700.5" y="851.4" class="st3" width="77.1" height="44.7"/>
					<path class="st2" d="M1775.5,831.6h-72.9c-6,0-10.9,3.7-10.9,8.4v9c0,4.6,4.9,8.4,10.9,8.4h72.9c6,0,10.9-3.7,10.9-8.4v-9
						C1786.4,835.4,1781.5,831.6,1775.5,831.6z"/>
				</g>
				<g>
					<rect x="1792.4" y="851.4" class="st3" width="77.1" height="44.7"/>
					<path class="st2" d="M1867.4,831.6h-72.9c-6,0-10.9,3.7-10.9,8.4v9c0,4.6,4.9,8.4,10.9,8.4h72.9c6,0,10.9-3.7,10.9-8.4v-9
						C1878.3,835.4,1873.5,831.6,1867.4,831.6z"/>
				</g>
			</g>
			<g>
				<path class="st2" d="M442.7,556.5h-42.3c-11.4,0-20.7,9.3-20.7,20.7v120.6h83.7V577.2C463.4,565.8,454.1,556.5,442.7,556.5z"/>
				<rect x="379.7" y="611.7" class="st3" width="83.7" height="47.4"/>
			</g>
			<g>
				<path class="st2" d="M545.1,569.7h-38.4c-10.4,0-18.8,8.4-18.8,18.8v109.4h75.9V588.5C563.9,578.1,555.5,569.7,545.1,569.7z"/>
				<rect x="488" y="619.8" class="st3" width="75.9" height="43"/>
			</g>
			<g>
				<g>
					<path class="st2" d="M1136.9,556.5h-42.3c-11.4,0-20.7,9.3-20.7,20.7v120.6h83.7V577.2C1157.6,565.8,1148.3,556.5,1136.9,556.5
						z"/>
					<rect x="1073.9" y="611.7" class="st3" width="83.7" height="47.4"/>
				</g>
				<g>
					<path class="st2" d="M1239.3,569.7h-38.4c-10.4,0-18.8,8.4-18.8,18.8v109.4h75.9V588.5C1258.1,578.1,1249.7,569.7,1239.3,569.7
						z"/>
					<rect x="1182.2" y="619.8" class="st3" width="75.9" height="43"/>
				</g>
			</g>
			<g>
				<g>
					<path class="st2" d="M1524.8,556.5h42.3c11.4,0,20.7,9.3,20.7,20.7v120.6h-83.7V577.2C1504.1,565.8,1513.4,556.5,1524.8,556.5z
						"/>
					
						<rect x="1504.1" y="611.7" transform="matrix(-1 -4.489488e-11 4.489488e-11 -1 3091.9834 1270.851)" class="st3" width="83.7" height="47.4"/>
				</g>
				<g>
					<path class="st2" d="M1422.4,569.7h38.4c10.4,0,18.8,8.4,18.8,18.8v109.4h-75.9V588.5C1403.6,578.1,1412.1,569.7,1422.4,569.7z
						"/>
					
						<rect x="1403.6" y="619.8" transform="matrix(-1 -4.489488e-11 4.489488e-11 -1 2883.2021 1282.4847)" class="st3" width="75.9" height="43"/>
				</g>
			</g>
			<g class="st4">
				<polygon class="st2" points="2121.3,720.7 2122.6,697.8 1979.4,697.8 1979.4,720.7 				"/>
				<rect x="999.6" y="697.8" class="st2" width="314.7" height="22.9"/>
				<rect x="1326.2" y="697.8" class="st2" width="314.7" height="22.9"/>
				<polygon class="st2" points="185.3,697.8 187.7,720.7 334.4,720.7 334.4,697.8 				"/>
				<rect x="346.3" y="697.8" class="st2" width="314.7" height="22.9"/>
				<rect x="1652.8" y="697.8" class="st2" width="314.7" height="22.9"/>
				<rect x="673" y="697.8" class="st2" width="314.7" height="22.9"/>
				<polygon class="st2" points="239.3,1212.7 241.7,1235.6 334.4,1235.6 334.4,1212.7 				"/>
				<g>
					<polygon class="st2" points="2090.9,1235.6 2092.3,1212.7 1979.4,1212.7 1979.4,1235.6 					"/>
					<rect x="346.3" y="1212.7" class="st2" width="314.7" height="22.9"/>
					<rect x="1652.8" y="1212.7" class="st2" width="314.7" height="22.9"/>
					<rect x="1326.2" y="1212.7" class="st2" width="314.7" height="22.9"/>
					<rect x="673" y="1212.7" class="st2" width="314.7" height="22.9"/>
					<rect x="999.6" y="1212.7" class="st2" width="314.7" height="22.9"/>
				</g>
				<g>
					<polygon class="st2" points="2105.9,981.3 2107.3,958.4 1979.4,958.4 1979.4,981.3 					"/>
					<polygon class="st2" points="211.4,958.4 216.6,981.3 661.1,981.3 661.1,958.4 					"/>
					<rect x="1652.8" y="958.4" class="st2" width="314.7" height="22.9"/>
					<rect x="1326.2" y="958.4" class="st2" width="314.7" height="22.9"/>
					<rect x="673" y="958.4" class="st2" width="314.7" height="22.9"/>
					<rect x="999.6" y="958.4" class="st2" width="314.7" height="22.9"/>
				</g>
				<path class="st5" d="M346.3,720.7v-22.9V406.3c-4,0.2-8,0.4-11.9,0.6v290.9v22.9v492v22.9v361.8l11.9,8.2v-370v-22.9V720.7z"/>
				<path class="st5" d="M673,720.7v-22.9V389.3c-4,0.2-7.9,0.4-11.9,0.6v307.9v22.9v492v22.9v367.8l11.9-0.2v-367.6v-22.9V720.7z"
					/>
				<path class="st5" d="M999.6,720.7v-22.9V372.4c-4,0.2-7.9,0.4-11.9,0.6v324.9v22.9v492v22.9V1598l11.9-0.2v-362.2v-22.9V720.7z"
					/>
				<path class="st5" d="M1326.2,720.7v-22.9V355.5c-4,0.2-7.9,0.4-11.9,0.6v341.7v22.9v492v22.9v357l11.9-0.2v-356.9v-22.9V720.7z"
					/>
				<path class="st5" d="M1652.8,720.7v-22.9V338.8c-3.9,0.2-7.9,0.4-11.9,0.6v358.4v22.9v492v22.9v351.7l11.9-0.2v-351.5v-22.9
					V720.7z"/>
				<path class="st5" d="M1979.4,697.8V322.4c-3.9,0.2-7.9,0.4-11.9,0.6v374.9v22.9v492v22.9v346.3l11.9-0.2v-346.1v-22.9v-492
					V697.8z"/>
			</g>
			<polygon class="st5" points="2218.9,1690.6 142.8,1690.6 275.4,1556.7 2039.4,1556.7 			"/>
			<g>
				<polygon class="st6" points="663.3,1585.8 462.4,1585.8 439.1,1613.4 647.1,1613.4 				"/>
				<polygon class="st6" points="648.8,1616.2 627.1,1653.2 805.5,1653.2 818.3,1616.2 				"/>
				<polygon class="st6" points="821.3,1616.2 808.5,1653.2 1007.2,1653.2 1011.5,1616.2 				"/>
				<polygon class="st6" points="1014.4,1616.2 1010.1,1653.2 1212.5,1653.2 1211.5,1616.2 				"/>
				<polygon class="st6" points="1602.8,1613.4 1586.7,1585.8 1424.4,1585.8 1434,1613.4 				"/>
				<polygon class="st6" points="1434.9,1616.2 1447.8,1653.2 1626.2,1653.2 1604.5,1616.2 				"/>
				<polygon class="st6" points="1214.3,1616.2 1215.4,1653.2 1444.8,1653.2 1431.9,1616.2 				"/>
				<polygon class="st6" points="1629.5,1653.2 1848,1653.2 1816.6,1616.2 1607.8,1616.2 				"/>
				<polygon class="st6" points="819.3,1613.4 828.9,1585.8 666.6,1585.8 650.4,1613.4 				"/>
				<polygon class="st6" points="436.7,1616.2 405.3,1653.2 623.8,1653.2 645.5,1616.2 				"/>
				<polygon class="st6" points="1606.1,1613.4 1814.2,1613.4 1790.8,1585.8 1590,1585.8 				"/>
				<polygon class="st6" points="1430.9,1613.4 1421.4,1585.8 1213.5,1585.8 1214.2,1613.4 				"/>
				<polygon class="st6" points="1211.4,1613.4 1210.6,1585.8 1017.9,1585.8 1014.7,1613.4 				"/>
				<polygon class="st6" points="1011.9,1613.4 1015.1,1585.8 831.9,1585.8 822.3,1613.4 				"/>
				<path class="st7" d="M2078.5,1585.8l-3.8-2.8h-282.5l-22.3-26.3h-3.7l22.3,26.3h-200.1l-15.4-26.3h-3.3l15.4,26.3h-161.6
					l-9.1-26.3h-3l9.1,26.3h-207l-0.7-26.3h-2.9l0.7,26.3h-192.3l3.1-26.3h-2.9l-3.1,26.3H832.9l9.1-26.3h-3l-9.1,26.3H668.3
					l15.4-26.3h-3.3l-15.4,26.3H464.9l22.3-26.3h-3.7l-22.3,26.3H249.3l-2.8,2.8h212.2l-23.4,27.5H219.2l-2.8,2.8h216.5l-31.4,37
					H179.8l-2.8,2.8h222.2l-29.3,34.6h3.7l29.3-34.6h219.3l-20.2,34.6h3.3l20.2-34.6h179.1l-12,34.6h3l12-34.6h199.4l-4,34.6h2.9
					l4-34.6h202.9l1,34.6h2.9l-1-34.6h230.3l12,34.6h3l-12-34.6h179.1l20.2,34.6h3.3l-20.2-34.6h219.3l29.3,34.6h3.7l-29.3-34.6
					h318.5l-3.8-2.8h-317.1l-31.4-37h298.9l-3.8-2.8h-297.5l-23.4-27.5H2078.5z M1586.7,1585.8l16.1,27.5H1434l-9.5-27.5H1586.7z
					 M1421.4,1585.8l9.5,27.5h-216.7l-0.8-27.5H1421.4z M1210.6,1585.8l0.8,27.5h-196.7l3.2-27.5H1210.6z M1015.1,1585.8l-3.2,27.5
					H822.3l9.5-27.5H1015.1z M828.9,1585.8l-9.5,27.5H650.4l16.1-27.5H828.9z M462.4,1585.8h200.8l-16.1,27.5H439.1L462.4,1585.8z
					 M405.3,1653.2l31.4-37h208.8l-21.7,37H405.3z M627.1,1653.2l21.7-37h169.5l-12.8,37H627.1z M808.5,1653.2l12.8-37h190.2
					l-4.3,37H808.5z M1010.1,1653.2l4.3-37h197.1l1,37H1010.1z M1215.4,1653.2l-1-37h217.6l12.8,37H1215.4z M1447.8,1653.2l-12.8-37
					h169.5l21.7,37H1447.8z M1848,1653.2h-218.5l-21.7-37h208.8L1848,1653.2z M1814.2,1613.4h-208.1l-16.1-27.5h200.8L1814.2,1613.4
					z"/>
			</g>
		</g>
		<g>
			<g>
				<g>
					<path class="st8" d="M1449.5,1178.8c-18.7-6.5-35.5-17.3-51.9-28.3c-24.7-16.6-49.7-34.8-64.5-60.7
						c-9.7-0.3-17.7,8.8-19.2,18.4c-1.5,9.6,2,19.2,6.3,27.9c28,57.1,94.2,93.3,157.2,84.5c10.4-1.5,21.1-4.3,28.7-11.5
						c15.1-14.4,7.8-26.3-9.6-26C1479.9,1183.4,1465.9,1184.5,1449.5,1178.8z"/>
					<path class="st9" d="M1514.3,1193.1c-33.3,8.6-68.9,10.2-100.3-3.2c-28.5-12.1-50.6-35.3-70.9-58.6
						c-9.2-10.6-18.5-22.5-23.1-35.4c-3.2,3.4-5.4,7.9-6.1,12.4c-1.5,9.6,2,19.2,6.3,27.9c28,57.1,94.2,93.3,157.2,84.5
						c10.4-1.5,21.1-4.3,28.7-11.5C1512.5,1203.1,1514.9,1197.5,1514.3,1193.1z"/>
				</g>
				<g>
					<path class="st8" d="M1440.7,1197c-19.7-1.1-38.9-7-57.6-13.1c-28.3-9.3-57.3-19.9-78.6-40.8c-9.4,2.3-14.6,13.3-13.4,22.9
						s7.2,17.9,13.7,25.1c42.4,47.3,116.1,64.1,174.2,38.5c9.6-4.2,19.2-9.9,24.5-18.9c10.6-18,0.4-27.4-16.3-22.4
						C1471.2,1193.1,1458,1198,1440.7,1197z"/>
					<path class="st9" d="M1506.9,1193c-29.7,17.3-63.5,28.5-97.3,24.2c-30.7-3.9-58.3-20.2-84.1-37.1
						c-11.7-7.7-23.9-16.6-31.9-27.8c-2.1,4.1-3,9-2.5,13.6c1.2,9.6,7.2,17.9,13.7,25.1c42.4,47.3,116.1,64.1,174.2,38.5
						c9.6-4.2,19.2-9.9,24.5-18.9C1508,1203.2,1508.7,1197.1,1506.9,1193z"/>
				</g>
				<g>
					<path class="st8" d="M1444.6,1213.2c-19.2,4.5-39.2,4.4-59,3.9c-29.8-0.8-60.6-2.8-86.9-16.8c-8.4,4.9-10.2,16.9-6.3,25.8
						c3.9,8.9,12,15.1,20.2,20.2c54.2,33.3,129.5,28.4,178-12.7c8-6.8,15.6-14.9,18.1-25.1c5.1-20.2-7.4-26.4-22-16.8
						C1472.7,1200.9,1461.5,1209.2,1444.6,1213.2z"/>
					<path class="st9" d="M1507,1190.6c-23.6,25-52.8,45.5-86.4,50.9c-30.5,5-61.6-2.8-91.2-11.6c-13.4-4-27.7-9.1-38.5-17.5
						c-0.9,4.6-0.3,9.5,1.5,13.8c3.9,8.9,12,15.1,20.2,20.2c54.2,33.3,129.5,28.4,178-12.7c8-6.8,15.6-14.9,18.1-25.1
						C1510.9,1200,1509.9,1194,1507,1190.6z"/>
				</g>
			</g>
			<g>
				<g>
					<path class="st10" d="M1417.3,1084.2c-8.2-14.7-18.3-28.2-26.8-42.7c-12.4-21.1-24.1-44.3-22.5-68.7c0.6-8.4,2.7-16.7,3.1-25.1
						c0.8-19.1-7.8-37.3-16.2-54.5c9.6-9.4,20.8-20.1,33.2-25.2c6.9,11.3,22.3,28.7,33.9,35.2c6.8,3.8,14.6,5.5,21.9,8.3
						c23.9,9.2,41.3,30,54.8,51.7c13.5,21.7,49.8,73.8,47.4,83.1C1541,1065.7,1459.3,1159.9,1417.3,1084.2z"/>
					<path class="st0" d="M1395.6,956.1c10.1-6.4,12.2-21.1,22.1-27.7c5.3-3.6,12.1-4.2,18-6.7c4.5-1.9,8.4-5.1,11.4-8.9
						c-1.1-0.5-2.1-0.9-3.2-1.3c-7.3-2.8-15.1-4.5-21.9-8.3c-11.6-6.5-27-23.8-33.9-35.2c-12.4,5-23.6,15.8-33.2,25.2
						c8.4,17.2,16.9,35.4,16.2,54.5c-0.2,5.1-1.1,10.2-1.9,15.2c0.2-0.1,0.3-0.1,0.5-0.2C1378.1,959.7,1388,961,1395.6,956.1z"/>
					<path class="st11" d="M1524.8,1003.7c-9.6-15.2-20.1-30.8-26.1-40.5c-6-9.6-12.7-19-20.5-27.4c-15.2,22.9-38.7,40.1-61.7,55.8
						c-12.7,8.6-26.4,17.4-41.1,20.7c4.1,10.1,9.5,19.8,14.9,29.1c8.1,13.8,17.7,26.7,25.7,40.6c19.1-3.5,37.7-8.5,55-17.2
						C1496.1,1052.3,1518,1030.4,1524.8,1003.7z"/>
					<path class="st11" d="M1385.3,875.3c2.9-2.2,5.9-4.5,7.4-7.7c1.5-3.3,1-7.8-2.1-9.6c-2.3-1.3-5.3-0.8-7.9-0.1
						c-11.1,3-42.7,15.4-40.4,30.9C1345.5,909.9,1378.9,880.1,1385.3,875.3z"/>
				</g>
				<circle class="st0" cx="1458.9" cy="1015.3" r="25.2"/>
			</g>
			<g>
				<g>
					<path class="st12" d="M1445.6,1085.6c3.5-9.5,9-18,14.7-26.4c7.3-10.7,15-21,23.1-31.1c2.6-3.3,5.6-6.7,9.6-7.7
						c8.1,29.7-5.1,64-31,80.6c-4.4,2.8-15.7,12.5-19.6,7.7C1438.8,1104.4,1443.9,1090.2,1445.6,1085.6z"/>
					<path class="st13" d="M1441.5,1099.6c-0.7,3.8-0.7,7.4,0.8,9.2c3.9,4.8,15.2-4.9,19.6-7.7c14-9,24.3-23.1,29.5-38.9
						C1471,1068,1452.8,1081.5,1441.5,1099.6z"/>
				</g>
				<path class="st12" d="M1394.5,1094c-13.9-8.3-25.9-20.3-32.8-34.9c20.9-0.7,41.9,4,60.4,13.7c7.2,3.8,14.3,8.6,18.6,15.6
					c2.5,4.2,4.5,10.6,3.1,15.5c-1.9,6.5-4.8,5.5-10.7,4.3C1419.5,1105.6,1406.3,1101.1,1394.5,1094z"/>
				<path class="st13" d="M1398.3,1095.5c10,5,20.8,8.4,31.8,10.5c6,1.1,8.8,2.2,10.7-4.3c1.5-4.9-0.5-11.3-3.1-15.5
					c-0.9-1.4-1.9-2.8-3-4.1c-2.5,0.7-5,1.5-7.5,2.3C1417.6,1087.6,1407.8,1091.3,1398.3,1095.5z"/>
				<path class="st14" d="M1518.4,1114.2c10.7,33.3-7.5,68.9-40.8,79.7c-33.3,10.7-68.9-7.5-79.7-40.8
					c-10.7-33.3,13.8-49.5,47.1-60.2C1478.3,1082.1,1507.7,1080.9,1518.4,1114.2z"/>
				<path class="st13" d="M1488.7,1086.8c9.1,11.6,14.5,26.1,14.8,40.9c0.4,17-5.9,34.2-17.2,46.9c-8.6,9.7-19.7,16.7-31.4,22.3
					c7.5,0.4,15.1-0.6,22.7-3c33.3-10.7,51.5-46.4,40.8-79.7C1512.9,1096.9,1502.3,1088.9,1488.7,1086.8z"/>
				<path class="st15" d="M1404.7,1139.4c3.8,7.6,11.2,13.3,19.5,15c8.3,1.8,17.3-0.5,23.9-5.9c2.6-2.2,4.9-4.9,5.7-8.2
					c1.5-6-2.5-12.3-7.7-15.6s-11.6-4.3-17.7-5.3c-4.7-0.8-9.6-1.7-14.3-0.8C1403.2,1120.6,1400.2,1130.3,1404.7,1139.4z"/>
			</g>
			<g>
				<path class="st16" d="M1390.1,937.8c0.7,16.9,4.1,33.6,10.2,49.3c3.4-23.2,5.6-46.6,6.5-70.1c4.4,19.4,8.8,38.8,13.2,58.2
					c3-18.8,6-37.6,9-56.3c3.8,23.6,6.2,47.4,7.3,71.2c8.2-18.4,16.4-36.9,24.5-55.3c0.3,19.8-2.7,39.7-8.6,58.6
					c21.7-6.5,45.1-6.8,67-1c-15.3,7.8-31.4,14.1-47.9,18.6c20.6,2.2,40.6,10.1,57.1,22.7c-13.2-0.4-26.5-0.9-39.7-1.3
					c10.5,5.2,20.5,11.3,29.8,18.4c-29.3-0.7-58.7,9.4-81.4,27.9c-9.9,8.1-43.7-32.8-47.8-45.6c-4-12.8,0.1-28.7,0.9-41.7
					C1391.2,973.6,1390.8,955.7,1390.1,937.8z"/>
				<path class="st17" d="M1197.9,1160.8c14.8-21.9,33.1-41.2,51.7-59.9c19.2-19.3,39.1-38.2,62.2-52.7c23-14.5,49.7-24.4,76.9-24
					c17.2,0.2,35.2,5.1,47,17.6c12,12.8,15.7,31.8,13.4,49.2c-2.3,17.4-9.8,33.6-17.8,49.3c-9.7,18.9-20.1,37.3-31.4,55.3
					c-15.2,24.2-32.6,48.3-57.5,62.2c-16.8,9.4-36.1,13.5-55.3,15.3c-30.7,2.9-70.7-1.8-96.7-19.9
					C1161.4,1233.1,1183,1182.9,1197.9,1160.8z"/>
				<g>
					<path class="st18" d="M1250.8,1123.5c-1.2-2.1-4.1-2.4-5.9-0.8c-0.7,0.7-1.4,1.3-1.7,2.3c-0.2,0.8-0.1,1.8,0.3,2.6
						c0.5,0.8,1.1,1.2,2,1.5c1,0.4,2,0,3-0.2c1.2-0.2,2.4-1.4,2.6-2.6C1251.4,1125.4,1251.3,1124.4,1250.8,1123.5z"/>
					<path class="st18" d="M1253,1149.8c-0.4-2-2-3.5-3.8-4.2c-1.7-0.7-3.3-0.7-5,0c-1.8,0.7-3.3,2.3-3.8,4.2c-0.2,1-0.5,2-0.6,3
						c-0.3,0.8-0.3,1.6-0.1,2.4c0,0.8,0.3,1.6,0.7,2.3c0.7,1.1,1.7,2,2.9,2.5c1.2,0.5,2.7,0.7,4,0.3c1.5-0.5,2.9-1.4,3.7-2.8
						c0.5-0.9,0.9-1.8,1.3-2.7c0.6-1,0.9-2.1,0.9-3.3C1253.2,1151,1253.1,1150.4,1253,1149.8z"/>
					<path class="st18" d="M1233.9,1182c-4.3,0-4.3,6.7,0,6.7C1238.2,1188.7,1238.2,1182,1233.9,1182z"/>
					<path class="st18" d="M1255.2,1205.1c-7,0-7,10.8,0,10.8C1262.2,1215.9,1262.2,1205.1,1255.2,1205.1z"/>
					<path class="st18" d="M1277.7,1158.4c-1.3-0.7-3.1-0.8-4.3,0c-0.2,0.2-0.5,0.3-0.7,0.5c-1.1,0.7-1.9,1.9-1.9,3.2
						c0,1.4,0.7,2.5,1.9,3.2c0.2,0.2,0.5,0.3,0.7,0.5c1.3,0.8,3.1,0.7,4.3,0c1.3-0.8,2.1-2.2,2.1-3.7
						C1279.9,1160.6,1279,1159.2,1277.7,1158.4z"/>
					<path class="st18" d="M1272.7,1115.3c-7.9,0-8,12.3,0,12.3C1280.6,1127.6,1280.6,1115.3,1272.7,1115.3z"/>
					<path class="st18" d="M1286.7,1094.1c-0.2-0.4-0.3-0.7-0.5-1.1c-0.2-0.8-0.7-1.6-1.3-2.2c-0.6-0.6-1.4-1.1-2.2-1.3
						c-1.7-0.5-3.6,0-4.9,1.3c-1.3,1.3-1.8,3.2-1.3,4.9c0.2,0.8,0.7,1.6,1.3,2.2c0.6,0.6,1.4,1.1,2.2,1.3c0.4,0.2,0.7,0.3,1.1,0.5
						c0.8,0.2,1.6,0.2,2.4,0c0.8-0.2,1.4-0.6,2-1.2c0.6-0.6,0.9-1.2,1.2-2C1286.9,1095.7,1286.9,1094.9,1286.7,1094.1z"/>
					<path class="st18" d="M1337.5,1126.3c-8.7,0-8.7,13.5,0,13.5C1346.2,1139.8,1346.2,1126.3,1337.5,1126.3z"/>
					<path class="st18" d="M1349.3,1153.2c-1-1-2.6-1.7-4.1-1.7c-1.5,0.1-3,0.6-4.1,1.7c-1,1.1-1.7,2.5-1.7,4.1c0,0.6,0,1.3,0,1.9
						c0,1.5,0.6,3,1.7,4c1,1,2.6,1.7,4,1.7c1.5-0.1,3-0.5,4-1.7c1-1.1,1.6-2.5,1.7-4c0-0.6,0-1.3,0-1.9
						C1351.1,1155.8,1350.4,1154.2,1349.3,1153.2z"/>
					<path class="st18" d="M1331.7,1184.8c-8.1,0-8.1,12.6,0,12.6C1339.9,1197.5,1339.9,1184.8,1331.7,1184.8z"/>
					<path class="st18" d="M1284.3,1214.1c-5.3,0-5.3,8.3,0,8.3C1289.6,1222.4,1289.6,1214.1,1284.3,1214.1z"/>
					<path class="st18" d="M1266.5,1255.5c-1-3-3.8-4.6-6.9-3.9c-2.3,0.5-4.6,1-6.9,1.5c-3.1,0.7-5.2,4.5-4.2,7.5
						c1,3,4.3,5.4,7.5,4.2c2.2-0.8,4.4-1.6,6.7-2.4C1265.3,1261.5,1267.5,1258.5,1266.5,1255.5z"/>
					<path class="st18" d="M1340.3,1233.2c0-0.3-0.1-0.5-0.1-0.8c-0.2-0.5-0.4-0.9-0.6-1.4c-0.4-0.7-0.9-1.2-1.5-1.6
						c-1-0.8-2.2-1.3-3.5-1.2c-1,0-2,0.3-2.9,0.8c-0.7,0.4-1.2,0.9-1.6,1.5c-0.5,0.6-0.9,1.2-1,2c0,0.3-0.1,0.5-0.1,0.8
						c-0.3,1.1-0.3,2.1,0,3.2c0.3,1,0.8,1.9,1.5,2.6c1.2,1.1,2.6,1.7,4.2,1.7c1.5,0,3.1-0.7,4.2-1.7c0.7-0.7,1.2-1.6,1.5-2.6
						C1340.6,1235.3,1340.6,1234.2,1340.3,1233.2z"/>
					<path class="st18" d="M1356.9,1213.6c-6,0-6,9.3,0,9.3C1362.9,1222.9,1362.9,1213.6,1356.9,1213.6z"/>
					<path class="st18" d="M1389.8,1179.9c-5.7,0-5.7,8.9,0,8.9C1395.5,1188.8,1395.5,1179.9,1389.8,1179.9z"/>
					<path class="st18" d="M1406.3,1156c-5.4,0-5.4,8.4,0,8.4C1411.7,1164.4,1411.7,1156,1406.3,1156z"/>
					<path class="st18" d="M1396.6,1134.8c-5.3,0-5.3,8.2,0,8.2C1401.9,1143,1401.9,1134.8,1396.6,1134.8z"/>
					<path class="st18" d="M1378.2,1107.6c-4.6,0-6.6,4.3-5.7,7.7c-0.6-0.3-1.3-0.5-2-0.5c-1.1,0-2.5,0.5-3.3,1.4
						c-0.8,0.9-1.4,2.1-1.4,3.3c0.1,1.2,0.5,2.4,1.4,3.3c0.3,0.3,0.6,0.6,1,1c0.8,0.8,2.1,1.4,3.3,1.4c1.1,0,2.5-0.5,3.3-1.4
						c0.8-0.9,1.4-2.1,1.4-3.3c0-0.4-0.1-0.7-0.2-1c0.7,0.2,1.4,0.4,2.3,0.4C1386.1,1119.8,1386.1,1107.6,1378.2,1107.6z"/>
					<path class="st18" d="M1341.5,1094.3c-0.5-0.9-1.2-1.5-2.1-2.1l-1.1-0.8c-0.4-0.2-0.9-0.4-1.3-0.6c-0.7-0.2-1.5-0.3-2.2-0.1
						c-1.2,0.2-2.4,0.6-3.2,1.5c-0.7,0.7-1.1,1.5-1.4,2.4c-0.2,0.7-0.3,1.5-0.1,2.2c0,0.7,0.3,1.4,0.7,2.1c0.3,0.4,0.5,0.7,0.8,1.1
						c0.5,0.9,1.2,1.5,2.1,2.1c0.9,0.5,1.9,0.8,2.9,0.8c1.5-0.1,3-0.6,4.1-1.7c1-1,1.7-2.6,1.7-4.1
						C1342.3,1096.2,1342,1095.2,1341.5,1094.3z"/>
					<path class="st18" d="M1324.9,1076.9c-0.7-0.7-1.9-1.2-2.9-1.2c-2.2,0.1-4.1,1.8-4.1,4.1v1c0,1,0.5,2.1,1.2,2.9
						c0.7,0.7,1.9,1.2,2.9,1.2c2.2-0.1,4.1-1.8,4.1-4.1v-1C1326.1,1078.8,1325.6,1077.7,1324.9,1076.9z"/>
					<path class="st18" d="M1345.1,1051c-1-0.9-2.3-1.6-3.6-1.5c-1.3,0.1-2.7,0.5-3.6,1.5c-0.3,0.3-0.6,0.7-0.9,1
						c-0.9,1-1.5,2.3-1.5,3.6c0,1.3,0.6,2.8,1.5,3.6c1,0.9,2.3,1.6,3.6,1.5c1.4-0.1,2.6-0.5,3.6-1.5c0.3-0.3,0.7-0.6,1-0.9
						c0.9-0.9,1.5-2.4,1.5-3.6C1346.6,1053.4,1346,1051.8,1345.1,1051z"/>
					<path class="st18" d="M1368.5,1041.3c-7.1,0-7.2,11.1,0,11.1C1375.7,1052.4,1375.7,1041.3,1368.5,1041.3z"/>
					<path class="st18" d="M1407.2,1050c-7.3,0-7.3,11.3,0,11.3C1414.5,1061.2,1414.5,1050,1407.2,1050z"/>
					<path class="st18" d="M1426.6,1064.6c-7.1,0-7.1,11,0,11C1433.7,1075.6,1433.7,1064.6,1426.6,1064.6z"/>
					<path class="st18" d="M1425.8,1101c-1.1-1-2.5-1.7-4-1.7c-1,0-1.9,0-2.9,0c-1.4,0-2.9,0.6-4,1.6c-1,1-1.7,2.6-1.6,4
						c0.1,1.4,0.5,2.9,1.6,4c1.1,1,2.4,1.6,4,1.6c1,0,1.9,0,2.9,0c1.4,0,3-0.6,4-1.7c1-1,1.7-2.6,1.7-4
						C1427.4,1103.5,1426.9,1102,1425.8,1101z"/>
					<path class="st18" d="M1355.9,1060.6c-4.8,0-4.8,7.4,0,7.4C1360.7,1068,1360.7,1060.6,1355.9,1060.6z"/>
					<path class="st18" d="M1414,1073.8c-8.9,0-9,13.9,0,13.9C1423,1087.7,1423,1073.8,1414,1073.8z"/>
				</g>
			</g>
			<g>
				<g>
					<path class="st12" d="M1129.2,1038.2c9.6-3,19.8-3.9,29.9-4.5c12.9-0.7,25.8-1,38.7-0.7c4.2,0.1,8.7,0.3,12,2.9
						c-18.6,24.6-53.7,35-82.8,24.7c-4.9-1.7-19.5-4.8-18.1-10.8C1110.3,1044.3,1124.6,1039.7,1129.2,1038.2z"/>
					<path class="st13" d="M1115.8,1043.6c-3.4,1.8-6.3,4-6.8,6.3c-1.4,6.1,13.2,9.1,18.1,10.8c15.7,5.6,33.1,5.1,48.8-0.4
						C1158.8,1047.6,1136.9,1041.4,1115.8,1043.6z"/>
				</g>
				<path class="st12" d="M1091.4,1002.9c-1.9-16.1,0.3-32.9,7.6-47.3c13.3,16.1,22.4,35.7,26.1,56.2c1.4,8.1,2,16.6-1,24.2
					c-1.8,4.6-5.6,10-10.4,11.9c-6.3,2.4-7.2-0.4-10-5.9C1097.5,1029.8,1093,1016.6,1091.4,1002.9z"/>
				<path class="st13" d="M1092.6,1006.9c2.2,11,6.1,21.6,11.1,31.6c2.8,5.4,3.7,8.3,10,5.9c4.8-1.8,8.6-7.3,10.4-11.9
					c0.6-1.6,1.1-3.2,1.4-4.8c-2.1-1.6-4.2-3.1-6.3-4.5C1110.6,1017.3,1101.7,1011.9,1092.6,1006.9z"/>
				<path class="st14" d="M1151.2,1113.4c-19.8,28.8-59.2,36.2-88,16.4c-28.8-19.8-36.2-59.2-16.4-88c19.8-28.8,47.6-19.3,76.4,0.5
					C1152,1062,1171,1084.5,1151.2,1113.4z"/>
				<path class="st13" d="M1154.7,1073.1c-3.6,14.3-11.8,27.4-23.3,36.7c-13.2,10.7-30.6,16.2-47.6,15.1
					c-12.9-0.9-25.2-5.4-36.8-11.2c4.3,6.1,9.7,11.6,16.2,16.1c28.8,19.8,68.2,12.4,88-16.4
					C1161.5,1098.4,1161.3,1085.1,1154.7,1073.1z"/>
				<path class="st15" d="M1061.8,1038.7c-3.7,7.6-3.7,17,0,24.6s11,13.4,19.3,15.3c3.3,0.7,6.9,0.9,10-0.5
					c5.7-2.5,8.2-9.5,7.6-15.7c-0.6-6.2-3.7-11.8-6.6-17.3c-2.2-4.2-4.5-8.6-8.1-11.8C1075.7,1026,1066.2,1029.6,1061.8,1038.7z"/>
			</g>
			<g>
				<g>
					<path class="st10" d="M1155.7,1056.9c5.5-15.9,8.8-32.5,13.9-48.5c7.5-23.3,16.9-47.5,36.2-62.6c6.6-5.2,14.2-9.1,20.7-14.4
						c14.8-12.2,22.6-30.7,29.8-48.4c13.4,0.9,28.9,2.1,40.9,8c-3.8,12.7-6.5,35.7-3.6,48.7c1.7,7.6,5.7,14.6,8.4,21.9
						c9,23.9,5.2,50.8-2,75.4c-7.2,24.6-21.7,86.3-30.3,90.7C1252.1,1136.7,1127.4,1138.7,1155.7,1056.9z"/>
					<path class="st0" d="M1236.7,955.3c11.5,3.2,23.8-5,35.4-2c6.2,1.6,11.2,6.2,17,8.9c4.4,2.1,9.4,2.9,14.2,2.6
						c-0.4-1.1-0.7-2.2-1.1-3.3c-2.8-7.3-6.7-14.3-8.4-21.9c-2.9-13-0.2-36,3.6-48.7c-12-5.9-27.5-7.1-40.9-8
						c-7.3,17.7-15.1,36.2-29.8,48.4c-4,3.3-8.3,6-12.6,8.8c0.1,0.1,0.3,0.1,0.4,0.2C1222.4,944.7,1228.1,952.9,1236.7,955.3z"/>
					<path class="st11" d="M1287.5,1083.3c4.9-17.3,9.6-35.5,12.7-46.4c3.2-10.9,5.7-22.2,6.7-33.5c-27.2,3.9-55.7-2-82.7-8.7
						c-14.9-3.7-30.5-8.1-42.8-16.8c-4.7,9.8-8.4,20.3-11.7,30.6c-4.9,15.3-8.1,31-13.2,46.2c15.3,11.9,31.5,22.4,49.5,29.5
						C1232.1,1094.4,1263,1096,1287.5,1083.3z"/>
					<path class="st11" d="M1290,893.7c3.5,0.7,7.3,1.4,10.7,0.4c3.5-1,6.5-4.5,5.7-8c-0.6-2.6-2.9-4.5-5.2-5.9
						c-9.7-6.3-40-21.5-50-9.4C1237.8,887.2,1282.2,892.1,1290,893.7z"/>
				</g>
				<circle class="st0" cx="1234.9" cy="1041.9" r="25.2"/>
			</g>
			<g>
				<g>
					<path class="st8" d="M1230.3,1072c-18.2,7.7-37.9,10.9-57.5,13.7c-29.5,4.2-60.2,7.5-88.5-1.9c-7.4,6.2-7.2,18.4-1.9,26.5
						c5.3,8.1,14.4,12.9,23.4,16.5c59,23.7,132.5,6.2,173.3-42.5c6.7-8,12.8-17.3,13.6-27.8c1.6-20.8-11.8-24.8-24.5-12.9
						C1255.9,1055.1,1246.2,1065.3,1230.3,1072z"/>
					<path class="st9" d="M1287.9,1039.2c-19,28.7-44.4,53.7-76.6,64.8c-29.3,10-61.2,7.7-91.9,3.9c-13.9-1.7-28.8-4.3-40.9-10.8
						c-0.1,4.6,1.3,9.4,3.8,13.3c5.3,8.1,14.4,12.9,23.4,16.5c59,23.7,132.5,6.2,173.3-42.5c6.7-8,12.8-17.3,13.6-27.8
						C1293.3,1047.9,1291.4,1042.1,1287.9,1039.2z"/>
				</g>
				<g>
					<path class="st8" d="M1235.9,1091.4c-15.4,12.4-33.5,20.9-51.6,28.9c-27.2,12.1-55.9,23.6-85.7,22.3c-5.4,8-1.9,19.7,5.4,26
						s17.3,8.5,27,9.5c63.2,6.7,129.2-30.1,155.2-88.1c4.3-9.6,7.6-20.2,5.5-30.4c-4.1-20.5-18.1-20.6-27.1-5.7
						C1255.9,1068.2,1249.4,1080.6,1235.9,1091.4z"/>
					<path class="st9" d="M1282.4,1044.2c-10.5,32.8-28.1,63.7-56.1,83.2c-25.4,17.6-56.8,24-87.4,28.7c-13.8,2.1-28.9,3.7-42.3,0.7
						c1.2,4.5,3.8,8.7,7.3,11.8c7.3,6.3,17.3,8.5,27,9.5c63.2,6.7,129.2-30.1,155.2-88.1c4.3-9.6,7.6-20.2,5.5-30.4
						C1290,1051,1286.5,1046,1282.4,1044.2z"/>
				</g>
				<g>
					<path class="st8" d="M1249.7,1100.8c-11.2,16.2-26.2,29.5-41.2,42.4c-22.7,19.3-46.9,38.5-75.8,45.8
						c-2.9,9.2,3.7,19.4,12.6,23.4c8.8,4,19,3.2,28.6,1.5c62.5-11.5,115.2-65.6,123.7-128.6c1.4-10.4,1.6-21.5-3.4-30.8
						c-9.8-18.4-23.2-14.6-27.6,2.2C1262.2,1072.9,1259.5,1086.6,1249.7,1100.8z"/>
					<path class="st9" d="M1280.8,1042.3c-0.7,34.4-8.8,69.1-30.1,95.7c-19.3,24.1-47.6,39.2-75.6,52.4c-12.6,6-26.6,11.7-40.3,12.7
						c2.4,4,6.1,7.3,10.3,9.2c8.8,4,19,3.2,28.6,1.5c62.5-11.5,115.2-65.6,123.7-128.6c1.4-10.4,1.6-21.5-3.4-30.8
						C1290,1046.7,1285.3,1042.9,1280.8,1042.3z"/>
				</g>
			</g>
			<path class="st19" d="M906.2,1093.9c17.8-23.6,47-38.7,76.7-38c34.9,0.8,65.6,21.9,94,42.2c20.7,14.7,41.4,29.5,60.1,46.7
				c8.9,8.2,17.5,17,27.5,23.7c8.1,5.4,17,9.4,25.2,14.7c15.4,10.1,27.6,25,34.5,42.1c1.7,4.3,3.1,9,2.4,13.6
				c-1.8,11.5-15,16.9-26.2,19.9c-27.3,7.4-54.8,13.7-82.6,19.1c-13.3,2.6-26.7,4.9-40.2,5.5c-36,1.5-71.2-9.8-105.4-21
				c-10.4-3.4-21.1-6.9-29.7-13.7c-12.4-9.7-19.1-24.7-27-38.4c-9.3-16.2-27.7-30.9-30.1-49.8C882.5,1138.1,893,1111.4,906.2,1093.9
				z"/>
			<path class="st20" d="M979.9,1175.7c-30.4-22-54.6-52.5-69.6-86.9c-1.4,1.6-2.8,3.3-4.1,5.1c-13.2,17.5-23.7,44.2-20.8,66.6
				c2.5,19,20.8,33.6,30.1,49.8c7.8,13.7,14.5,28.7,27,38.4c8.6,6.7,19.3,10.3,29.7,13.7c34.3,11.2,69.4,22.5,105.4,21
				c13.5-0.6,26.9-2.9,40.2-5.5c27.7-5.4,55.3-11.8,82.6-19.1c11.2-3,24.5-8.4,26.2-19.9c0.7-4.6-0.7-9.3-2.4-13.6
				c-3.7-9.2-9-17.8-15.5-25.4c-32.4,5.4-64.9,14.3-97.8,15.6C1064.4,1217.1,1017.5,1202.9,979.9,1175.7z"/>
			<path class="st21" d="M612.4,1235.6C611.1,1224.9,833,962,833,962s118.7,300.5,106.8,300.5S662,1293.8,662,1293.8L612.4,1235.6z"
				/>
			<g>
				<path class="st22" d="M847.2,998.4L662,1293.8c0,0,265.9-31.3,277.8-31.3C949.1,1262.5,878.4,1078.4,847.2,998.4z"/>
			</g>
			<g>
				<path class="st13" d="M2009.6,1528c0,0-140.2,72.3-117.7,72.3c22.5,0,178.8,0,178.8,0s-17.2-76.5-27-85.1
					C2033.7,1506.6,2009.6,1528,2009.6,1528z"/>
				<path class="st11" d="M2061.3,787.6l-140.7,404.9l132,326.1l-64.1,22.4c0,0-177.3-284.4-171.3-319.5c6-35.1,38.3-340,38.3-340
					S2009.6,780.7,2061.3,787.6z"/>
				<path class="st13" d="M2061.3,787.6c-51.7-7-205.8,93.9-205.8,93.9s-28.1,265.4-36.8,329.5c48.1-36.4,93.8-76.1,136.7-118.7
					L2061.3,787.6z"/>
				<path class="st13" d="M1818.7,1573.4c0,0-147.2,67-124.7,67c22.5,0,178.8,0,178.8,0s-17.2-76.5-27-85.1
					S1818.7,1573.4,1818.7,1573.4z"/>
				<path class="st11" d="M1865.1,779.8c0,0-225.6,455.3-216.9,480c8.7,24.7,164.4,324.6,164.4,324.6l43.2-17
					c0,0-66.7-249.1-107.3-305.5c0,0,334.1-460.2,313.4-508.7C2041.3,704.7,1866.8,747,1865.1,779.8z"/>
				<g>
					<path class="st13" d="M1697.8,406.3c0,0-46.6,49.9-18.3,150.2s59.2,174.4,59.2,174.4s-24.8-13.7-67.2,24.7
						c-42.4,38.4-17.7,52.9-17.7,52.9s169.1-39.3,215.5-71.1C1915.8,705.5,1735.7,418.7,1697.8,406.3z"/>
					<g>
						<path class="st23" d="M1711.9,396.8c0,0-42.6,45.4-38.1,100c4.6,54.6,181.6,302,181.6,302s171.3,2.3,204.7-39.7
							c0,0-79.5-188.4-103.3-228.9C1933,489.7,1772.6,332.6,1711.9,396.8z"/>
						<path class="st24" d="M1746.5,619.5c1.8-0.9,4-0.7,6-0.3c14,2.8,27.7,10.9,41.5,7.4c-5.6-15-16.4-28.1-30.2-36.4
							c-1.6-1-3.4-2-4.3-3.7c-1.5-2.9,0.1-6.3,1.9-9c6.7-9.8,17.1-18.3,18.1-30.2c0.1-1.3,0.1-2.8-0.7-3.9c-1.5-2.1-4.7-1.9-7.2-1.3
							c-12.6,2.7-24.9,6.5-36.7,11.5c-2.4,1-4.8,2.1-7.4,1.8c-3.6-0.4-6.4-3.3-8.7-6.1c-9.2-11.3-17.5-24.8-31.2-29.6
							c-1.9-0.7-4.3-1.1-5.8,0.3c-0.3,0.3-0.6,0.7-0.8,1c11.3,27.2,34.5,67.2,60.4,108.4c0.3-1.1,0.6-2.2,1-3.3
							C1743.1,623.6,1744.1,620.7,1746.5,619.5z"/>
						<path class="st13" d="M1956.8,530.2c-22.4-38-165.3-179.1-232.9-142.6c-9,15.7-13.6,33.5-11.7,51.8
							c2.7,25,16.6,47.4,32.6,66.9c34.8,42.5,79.9,75.2,124.4,107.4c-14.1,6.2-21.9,21-29.3,34.5c-12.7,23-27.2,45-43.1,65.9
							c20.9,30.9,39.1,57.1,49.6,71.8c67.2-16.8,132.3-42.2,193.2-75.3C2014.2,651.9,1972.9,557.5,1956.8,530.2z"/>
						<g>
							<g>
								<path class="st11" d="M1575.4,313.4c-18.4-10.3-29.5-32.2-27.1-53.1c2-17,12.3-32.4,25.8-42.9c13.5-10.5,30.1-16.6,46.8-20
									c25.5-5.1,53.3-4.1,76,8.6c13.1,7.3,24.3,18.6,30.2,32.4c5.7,13.5,6.1,28.8,2.8,43.1c-3.4,14.2-10.3,27.4-18.9,39.3
									c-6.7,9.3-16.6,22.9-28,23.7c-11.5,0.8-22.7-2.9-34.1-4.5c-14.7-2-30.3-0.6-43.8-6.8
									C1593.4,327.7,1586.5,319.6,1575.4,313.4z"/>
								<path class="st25" d="M1566.7,287.2c0,0-3.9,177.2,74.2,95.3l23.1,38.3l71.5-64.9l-35.4-33.7c0,0,16.7-7,13.9-28.7
									s-30.9-41-38.3-19.5l-18.8,7.6c0,0-0.1,13.9,18.8,11.9C1675.7,293.6,1595.3,313.8,1566.7,287.2z"/>
								<polygon class="st24" points="1735.6,338 1664.1,420.8 1664.2,477.5 1774.5,348.2 								"/>
								<path class="st13" d="M1684.2,300.8c-4.8,0.9-21.1-0.2-24.3-3.9c0,0-72.6,9.5-93.2-9.7c0,0-0.2,8.2,0.3,20.3
									c13.4,9.5,30.3,14.1,46.8,13.9C1634.5,321.2,1666.5,311.4,1684.2,300.8z"/>
								<path class="st13" d="M1662.6,363.5c-4.6,5.1-9.7,9.7-15.2,13.7c-3.2,2.3-6.6,4.5-9.2,7.4c-0.7,0.8-1.4,1.7-2,2.7
									c1.6-1.5,3.2-3.1,4.8-4.8l14.3,23.8c1.9-4,3.4-8.1,4.5-12.4C1662.4,384,1662.9,373.7,1662.6,363.5z"/>
								<path class="st13" d="M1694.3,304.2c-5.2-1-8.5-6.2-10.3-11.2c-1-2.6-1.7-5.4-1.4-8.2c0.3-2.8,1.9-5.6,4.5-6.6
									c2.3-1,5-0.4,7.1,1c2.1,1.4,3.6,3.5,4.8,5.7c2.5,4.6,3.9,10,3.1,15.2c-0.4,2.9-1.9,7.3-4.4,9.1
									C1692.5,312.9,1694.4,308.2,1694.3,304.2z"/>
							</g>
							<path class="st25" d="M1785.8,342.8c0,0-52.1-7.2-73.9,54.1s237.3,215.4,237.3,215.4s-48.8-19.4-75.7,34.9
								c-26.9,54.4-125.9,116.3-125.9,116.3l15.7,26.8c0,0,354.1-130.5,348.3-180.2"/>
							<path class="st26" d="M2111.5,610.1l-48.5-39.8c-43.2,4.5-85.7,16.4-124.9,35.2c1,0.6,2,1.2,2.9,1.8
								c38.2,5,74.2,21,109.4,36.8c6.4,2.9,12.9,5.8,19.3,8.8C2096.3,636.2,2112.8,621.2,2111.5,610.1z"/>
							<path class="st24" d="M1785.8,342.8c0,0-52.1-7.2-73.9,54.1c-11.7,32.9,57.4,92.4,124,140.6c33.1-25.6,68.8-47.8,106.4-66.2
								L1785.8,342.8z"/>
							<path class="st13" d="M2008.3,611.6c-16.6-4.7-34.2-4.3-51.2-2.1c0.2-0.1,0.4-0.2,0.5-0.3c3.3-1.9,6.6-3.7,10-5.3
								c7.3-3.5,14.9-6.1,22.2-9.7c2.8-1.4,1.5-6.2-1.6-5.9c-8.7,0.7-16.4,3.9-24,8.1c-3.8,2.1-7.4,4.5-10.9,7.1
								c-2.7,2-5.6,3.8-6,7.3c0,0.1,0,0.3,0,0.4c-1.1,1.1-0.5,3.6,1.4,3.6c19.7-0.6,39.1,1.9,58.8,2.2
								C2010.6,616.9,2011.2,612.4,2008.3,611.6z"/>
						</g>
					</g>
				</g>
			</g>
			<g>
				<g>
					<g>
						<path class="st13" d="M882.5,479.3c-5.4,6.3-9.8,13.7-11.5,21.9s-0.4,17.1,4.6,23.8c7,9.5,20.5,12.8,31.9,9.9
							c22.3-5.7,51.3-41.8,40.1-65.6C934.4,441.2,895.9,463.8,882.5,479.3z"/>
						<g>
							<path class="st17" d="M841.4,620.4c0,0-40.8,4.2-92.1-1.4c-51.3-5.6-107.1-17.8-107.1-17.8s-54.3-30-78.4-35.9
								c-24.1-6-179.8-51.4-179.8-51.4l-7.6,28.1c0,0,147.2,86.1,187.4,101.9c40.2,15.8,230.4,65.5,272.3,51.6
								C836.2,695.4,859.5,630.7,841.4,620.4z"/>
						</g>
						<path class="st13" d="M841.4,620.4c0,0-5.8,0.6-15.9,1c-3.4,3.1-6.8,6.2-10.2,9.2c-5.6,5.1-11.3,10.2-17.5,14.4
							c-4.9,3.3-10.2,6.2-15.3,9.2c-16,9.5-30.7,21.1-43.6,34.5c43.1,7.9,81.2,12,97.3,6.6C836.2,695.4,859.5,630.7,841.4,620.4z"/>
						<path class="st13" d="M686.2,930.5c0,0-327.3,90.3-305.5,147.8c21.9,57.5,126.7,240.2,126.7,240.2l29.6-11.1
							c0,0,5-115.1-63.9-206.5c0,0,260.4-4.2,319-84.5C850.7,936,686.2,930.5,686.2,930.5z"/>
						<path class="st13" d="M162.8,1259.1c0,0-88.2-54.9-85.8-46.4c2.3,8.5,65.7,101.3,65.7,101.3s29.4-34.5,31.7-35.8
							C176.7,1276.9,162.8,1259.1,162.8,1259.1z"/>
						<path class="st13" d="M512.7,1302.4c0,0-70.1,76.6-61.3,75.9c8.8-0.7,111.6-46.1,111.6-46.1s-28.5-35.2-29.4-37.7
							S512.7,1302.4,512.7,1302.4z"/>
						<path class="st11" d="M753.8,903.7c0,0-287.3,7.8-331.3,12.9c-44,5.1-275.3,352.3-275.3,352.3s6.5,19.1,23.6,18.5
							s248.8-168.4,271.6-277.5c0,0,428,112.4,406.9-40.1L753.8,903.7z"/>
						<path class="st14" d="M841.4,620.4c0,0,86.9-0.4,138.3,32.8c0,0-4.2,77.6-34.1,97.2c0,0-74.2,68.8-82.1,96.9
							c-7.9,28.1-14.3,122.5-14.3,122.5s-120.8-12.5-163.1-70.3c0,0,63.4-110.7,108.9-155c0,0-47.5-52.8-9.4-78.3
							c38.1-25.5,41-19.6,41-19.6L841.4,620.4z"/>
						<path class="st13" d="M812.2,754.3c6.3,3,13.4,4,20.4,4.3c23.6,1.3,47.5-3.9,68.5-14.7c-15.4,3-31.1,5.8-46.8,4.2
							c-15.6-1.7-31.4-8.4-40.6-21.1c-3.2-4.4-5.8-9.6-10.5-12.4c-3-1.8-6.5-2.4-9.9-3.4c-9.4-2.8-17.4-9.4-22.6-17.7
							c0.2,16.8,11.5,34.6,18.6,44.1c0.9,0.6,1.8,1.3,2.7,2C798.8,744.6,804.7,750.8,812.2,754.3z"/>
						<path class="st17" d="M905.7,487.1c0,0-100.7,74.9-68.3,83.3c32.4,8.4,46.1,15.3,46.1,15.3l-11.4,54.6c0,0,38.9-0.3,53.5-8.9
							l13.9-56.5c0,0,23.6,16.5,31.3-14.3s-17.2-27.2-17.2-27.2S957,498.3,905.7,487.1z"/>
						<path class="st13" d="M831.2,565.2c0.6,2.4,2.6,4.2,6.2,5.2c25.7,6.7,39.7,12.4,44.3,14.4c10.5-2.7,20.8-6,30.8-10
							C885.1,576.9,857.3,573.6,831.2,565.2z"/>
						<path class="st13" d="M905.6,471.1c-10.1,19.1-6.7,43.8,6.3,61.1c13,17.3,34.3,27.3,55.9,29c6.8,38.4,33.4,69.9,69.9,83.4
							c36.6,13.6,78,10.3,114.4-3.6c47.5-18.1,86.7-52.7,131.5-76.6c44.8-23.8,95.4-36.6,146.1-37c6.8-17.6,3-36.5-9.8-50.3
							c-25.3-27.4-64.1-41.8-101.2-37.6c-26.6,3.1-51.2,14.9-75.8,25.6c-41.8,18.2-89,33.7-132.1,18.8c-32.7-11.3-58.1-38.8-91-49.6
							C983.1,422.1,923.8,436.8,905.6,471.1z"/>
					</g>
					<path class="st17" d="M979.7,653.2c0,0,111.4,179.6,115.5,212.8c4.1,33.2-181,162.6-181,162.6l-27.4-2.3
						c0,0,102.8-126.6,150.7-158.5L927.8,746.2C927.8,746.2,911.1,665.6,979.7,653.2z"/>
				</g>
				<path class="st21" d="M315.4,502.5c-0.5,2.1,0.3,4.3,1.2,6.3c2.7,6.1,6,12.2,11.2,16.2c2.3,1.8,4.9,3.1,7.4,4.4
					c5,2.5,10,5.1,14.9,7.6c2.2,1.1,4.6,2.3,7,2.1c3.4-0.2,6.3-2.9,7.5-6c1.2-3.2,1-6.7,0.4-10c-2.3-11.2-10.3-20.5-20.5-25.4
					C337.8,494.5,317.8,492.6,315.4,502.5z"/>
				<path class="st17" d="M387,515.5c-16.3-7.2-32.6-14.4-48.9-21.6c-9.9-4.3-20-8.7-30.7-9.3c-0.8,0-1.6,0-2.2,0.4
					c-1.7,1.3,0.1,3.9,1.9,5c4.6,3.1,9.5,5.6,14.6,7.6c2.6,1,3.2,2.7,5.9,3.5c4.2,1.3,8.5,2.5,12.7,3.8c4.6,1.4,9.4,2.9,12.8,6.3
					c3.4,3.4,4.8,8.2,5.7,12.8c0.1,0.5,0.2,1.1,0,1.6c-0.2,0.5-0.6,0.9-1,1.2c-3.4,2.5-8.8,1.3-10.9-2.3
					c-3.4-6.1-11.7-10.3-18.7-10.6c-2.1-0.1-4.7,0.6-5.1,2.6c-2.6,2-1.8,5.7,0.2,8.4c2,2.6,5,4.2,7.8,5.9c3,1.8,5.7,3.9,8.2,6.3
					c5.6,5.3,10.9,12.4,18.7,13c8.1,0.6,14.9-6.5,22.9-7.6c4.5-0.6,9.7,0.4,13-2.6c2.5-2.3,2.9-6.1,2.7-9.5
					C396.1,524,392.7,518.1,387,515.5z"/>
			</g>
			<g>
				<rect x="656.5" y="1074.2" class="st27" width="10.5" height="212.3"/>
				<rect x="746" y="1074.2" class="st27" width="10.5" height="212.3"/>
				<rect x="837.9" y="1041.6" class="st27" width="10.5" height="244.9"/>
				<rect x="929.8" y="1020.4" class="st27" width="10.5" height="266.2"/>
				<rect x="1021.7" y="1001.8" class="st27" width="10.5" height="284.7"/>
				<rect x="1113.6" y="974.7" class="st27" width="10.5" height="311.8"/>
				<rect x="1205.5" y="950.4" class="st27" width="10.5" height="336.1"/>
				<rect x="1297.4" y="937.4" class="st27" width="10.5" height="349.1"/>
				<rect x="1377" y="915.3" class="st27" width="10.5" height="371.3"/>
				<rect x="1459.4" y="893" class="st27" width="10.5" height="393.5"/>
				<rect x="1551.1" y="874.6" class="st27" width="10.5" height="174.8"/>
				<path class="st11" d="M626.5,1109.7L1634,866.1l9.3-34.5L595.1,1085.1c-7,1.7-12,8-12,15.2V1215c0,43.5,35.3,78.8,78.8,78.8h821
					v-31.3H693.3c-43.5,0-78.8-35.3-78.8-78.8V1125C614.5,1117.7,619.4,1111.4,626.5,1109.7z"/>
				<path class="st28" d="M1796.6,804.4h-141.3l-169.9,427.9c-11.1,28.1-3.4,60.1,19.2,80l78.3,68.8c10.2,8.9,16,21.8,16,35.4v41.8
					c0,26-21.1,47.1-47.1,47.1H817.2"/>
				<g>
					<ellipse class="st11" cx="845.9" cy="1582.4" rx="58.9" ry="57.9"/>
					<ellipse class="st13" cx="845.9" cy="1582.4" rx="32.9" ry="32.4"/>
				</g>
				<g>
					<ellipse class="st11" cx="1549.1" cy="1582.4" rx="58.9" ry="57.9"/>
					<ellipse class="st13" cx="1549.1" cy="1582.4" rx="32.9" ry="32.4"/>
				</g>
			</g>
			<path class="st17" d="M859.3,1043.5c0.2,1.2,0.6,2.5,1.6,3.2c2.4,1.8,5.4-0.9,7.2-3.3c5.8-8,11.6-16,17.5-24
				c-5.1,9.9-10.2,20.6-8.9,31.6c0.2,1.6,0.6,3.3,1.9,4.1c2.7,1.8,5.8-1.6,7.3-4.4c4.9-9.2,9.5-18.5,13.9-27.9
				c-3,10-6.1,20.5-4,30.8c0.2,1.1,0.6,2.3,1.6,2.9c1.9,1,3.9-1.2,4.9-3.2c4.9-9.4,9.8-18.8,14.8-28.2c-2.1,7.2-3.2,14.6-3.2,22.1
				c0,2.7,1.7,6.5,4.1,5.3c0.7-0.4,1.2-1.1,1.6-1.8c5.6-10.6,5-24.2,12.4-33.7c8.8-11.3,19.7-17.8-1.8-18.4
				c-8.9-0.3-16.9,0.7-25.5,2.9C884.1,1006.5,853.5,1015.6,859.3,1043.5z"/>
		</g>
	</g>
	<path class="st25" d="M1715,773.6c-11.3,3.5-23,9.1-28.6,19.6c-2.9,5.4-3.8,11.6-3.8,17.7c0,5.1,0.8,10.3,3.5,14.6
		c3.3,5.3,9.3,8.4,15.5,9.5s12.4,0.3,18.5-1c9.4-1.9,18.6-4.9,27.3-8.9c5.5-2.5,11.7-7.4,10-13.1c-0.4-1.5-1.4-2.9-1.9-4.4
		c-1.2-3.7,0.8-7.8,3.4-10.8c2.5-3,5.7-5.6,7.5-9.1c5.1-10.3-3.3-26.2-15-26C1740.6,761.7,1725.4,770.3,1715,773.6z"/>
</g>
</svg>
